<svg width="200" height="200" viewBox="0 0 200 200" fill="none" xmlns="http://www.w3.org/2000/svg">
<path d="M104.076 105.773C100.85 98.2328 100.548 89.4472 100.548 86.475C100.548 81.208 101.801 74.0395 104.163 68.6195C98.6426 71.6792 93.8126 77.1431 91.072 81.973C90.8403 82.3882 90.4447 82.6722 89.9858 82.7814C89.529 82.8688 89.046 82.7596 88.6723 82.4974C83.3331 78.5416 77.3733 75.2197 70.9129 72.5972C73.5268 79.0662 76.8422 85.0107 80.798 90.3651C81.0777 90.7366 81.1826 91.2174 81.0842 91.6764C80.9881 92.1353 80.6996 92.5287 80.2909 92.7691C75.461 95.501 69.9972 100.331 66.9375 105.86C72.3554 103.5 79.526 102.232 84.7799 102.232C87.761 102.232 96.5401 102.538 104.076 105.773ZM107.931 63.6237C108.46 63.6237 108.969 63.8792 109.279 64.3316C109.679 64.9042 109.664 65.6911 109.24 66.2375C105.85 70.7396 103.827 80.0715 103.827 86.475C103.827 93.6215 105.37 103.303 109.701 109.095C110.189 109.75 110.123 110.668 109.548 111.236C108.969 111.805 108.058 111.87 107.406 111.389C101.619 107.062 91.9243 105.51 84.7799 105.51C78.372 105.51 69.0574 107.543 64.5597 110.931C63.998 111.346 63.2265 111.368 62.643 110.974C62.0617 110.559 61.8038 109.838 61.9983 109.16C63.9303 102.516 69.7699 95.4792 77.1066 90.846C72.7619 84.6829 69.2104 77.7985 66.5376 70.3242C66.3234 69.7341 66.472 69.0566 66.92 68.6195C67.3702 68.1606 68.039 68.0076 68.6313 68.2262C76.1101 70.8925 83.0053 74.4549 89.1597 78.804C93.7842 71.4608 100.819 65.6256 107.474 63.687C107.625 63.6433 107.778 63.6237 107.931 63.6237Z" fill="#4E86BB"/>
<path d="M198.36 0C199.265 0 200 0.734323 200 1.63911L200 198.35C200 199.268 199.265 199.989 198.36 199.989L1.63914 199.989C0.734344 199.989 1.52588e-05 199.268 1.52588e-05 198.35C1.52588e-05 197.454 0.734344 196.711 1.63914 196.711L196.721 196.711L196.721 1.63911C196.721 0.734323 197.456 0 198.36 0Z" fill="#4E86BB"/>
<path d="M198.361 137.025C198.681 137.025 199.003 137.113 199.286 137.309C200.033 137.812 200.225 138.839 199.714 139.582C192.12 150.685 167.68 156.345 151.444 151.449C156.358 167.688 150.686 192.121 139.582 199.705C138.835 200.229 137.814 200.033 137.303 199.29C136.792 198.547 136.984 197.519 137.731 197.017C148.38 189.717 153.511 163.885 147.198 149.351C146.929 148.739 147.066 148.018 147.542 147.538C148.02 147.057 148.74 146.925 149.354 147.188C163.897 153.504 189.725 148.39 197.007 137.725C197.325 137.266 197.839 137.025 198.361 137.025Z" fill="#4E86BB"/>
<path d="M169.361 82.1041C169.3 82.1041 169.24 82.1041 169.181 82.1041C166.241 82.0386 164.042 80.4213 162.645 79.1975C162.33 78.9352 162.025 78.6511 161.723 78.367C160.592 77.3398 159.616 76.4437 158.301 76.1596C156.43 75.7662 154.313 76.6186 153.156 78.214C152.007 79.7875 152.144 82.3227 153.476 84.1148C155.176 86.3877 157.781 87.1089 159.667 87.2838C163.462 87.6771 167.755 86.3439 170.375 83.9835C171.128 83.306 171.78 82.5194 172.322 81.6453C171.303 81.9512 170.268 82.1041 169.361 82.1041ZM158.103 56.6562C159.039 56.6562 159.987 56.6892 160.946 56.7504C170.112 57.3426 177.367 65.2104 177.462 74.6517C177.506 79.2849 175.722 83.5902 172.565 86.4313C169.25 89.4036 164.051 91.0208 159.342 90.54C155.697 90.1903 152.759 88.6388 150.848 86.0817C148.658 83.1313 148.514 79.0227 150.506 76.2908C152.423 73.6464 155.824 72.2912 158.966 72.9469C161.167 73.4058 162.64 74.761 163.94 75.963C164.219 76.2253 164.499 76.4657 164.789 76.7279C166.425 78.1485 167.803 78.7822 169.254 78.8259C171.012 78.8696 173.798 77.9079 174.103 76.3344C174.162 75.8098 174.189 75.2416 174.183 74.6952C174.107 66.9368 168.199 60.5028 160.734 60.0198C150.928 59.3992 142.28 62.2928 135.738 68.4231C128.876 74.8703 124.939 84.3334 124.939 94.3866C124.939 106.319 131.891 118.033 142.652 124.24C152.06 129.66 164.324 130.469 175.454 126.36C187.778 121.814 196.721 109.27 196.721 96.5501C196.721 95.6322 197.456 94.911 198.36 94.911C199.265 94.911 200 95.6322 200 96.5501C200 110.603 190.153 124.437 176.587 129.442C164.556 133.856 151.256 132.982 141.013 127.081C129.257 120.306 121.66 107.478 121.66 94.3866C121.66 83.4155 125.974 73.0781 133.496 66.0408C140.072 59.8712 148.533 56.6562 158.103 56.6562Z" fill="#4E86BB"/>
<path d="M81.6437 172.321C82.5178 171.774 83.3046 171.119 83.9821 170.376C86.3359 167.753 87.6647 163.448 87.2866 159.667C87.1008 157.787 86.3971 155.187 84.1154 153.482C82.3277 152.149 79.7882 152.018 78.208 153.154C76.6192 154.312 75.7778 156.432 76.1646 158.29C76.4378 159.623 77.336 160.585 78.3741 161.721C78.6517 162.027 78.9292 162.333 79.2024 162.639C80.4132 164.038 82.0305 166.245 82.096 169.174C82.1179 170.135 81.9715 171.228 81.6437 172.321ZM94.3939 121.661C107.472 121.661 120.302 129.267 127.083 141.003C132.993 151.253 133.871 164.562 129.433 176.582C124.432 190.154 110.599 199.989 96.5422 199.989C95.6374 199.989 94.9031 199.268 94.9031 198.35C94.9031 197.454 95.6374 196.711 96.5422 196.711C109.275 196.711 121.814 187.772 126.357 175.446C130.461 164.322 129.672 152.061 124.245 142.642C118.036 131.889 106.32 124.94 94.3939 124.94C84.3253 124.94 74.8599 128.873 68.4257 135.736C62.2932 142.271 59.3865 150.925 60.0203 160.738C60.5033 168.19 66.944 174.113 74.685 174.178C75.2598 174.2 75.8083 174.157 76.3547 174.091C77.9174 173.785 78.8571 171.031 78.8178 169.261C78.7872 167.797 78.1403 166.42 76.7219 164.781C76.4728 164.497 76.2149 164.213 75.9613 163.95C74.7659 162.639 73.4109 161.175 72.9563 158.968C72.305 155.82 73.6425 152.433 76.2804 150.51C79.021 148.521 83.1385 148.652 86.0759 150.838C88.6394 152.761 90.1868 155.689 90.5496 159.339C91.0194 164.06 89.4 169.239 86.4212 172.561C83.5844 175.73 79.3358 177.457 74.6522 177.457C65.2043 177.369 57.3409 170.113 56.7486 160.956C56.0558 150.204 59.2663 140.719 66.0348 133.507C73.0852 125.967 83.4226 121.661 94.3939 121.661Z" fill="#4E86BB"/>
</svg>
