<svg width="200" height="200" viewBox="0 0 200 200" fill="none" xmlns="http://www.w3.org/2000/svg">
<path d="M95.9243 94.2272C99.1501 101.767 99.4517 110.553 99.4517 113.525C99.4517 118.792 98.1994 125.96 95.8369 131.38C101.357 128.321 106.187 122.857 108.928 118.027C109.16 117.612 109.555 117.328 110.014 117.219C110.471 117.131 110.954 117.24 111.328 117.503C116.667 121.458 122.627 124.78 129.087 127.403C126.473 120.934 123.158 114.989 119.202 109.635C118.922 109.263 118.817 108.783 118.916 108.324C119.012 107.865 119.3 107.471 119.709 107.231C124.539 104.499 130.003 99.669 133.062 94.1397C127.645 96.5001 120.474 97.7678 115.22 97.7678C112.239 97.7678 103.46 97.4618 95.9243 94.2272V94.2272ZM92.0691 136.376C91.5402 136.376 91.031 136.121 90.7206 135.668C90.3207 135.096 90.336 134.309 90.76 133.763C94.1497 129.26 96.1734 119.928 96.1734 113.525C96.1734 106.378 94.6305 96.6968 90.2988 90.9053C89.8114 90.2496 89.877 89.3318 90.4518 88.7635C91.0309 88.1953 91.9423 88.1297 92.5936 88.6105C98.3808 92.9378 108.076 94.4895 115.22 94.4895C121.628 94.4895 130.943 92.4569 135.44 89.0694C136.002 88.6541 136.773 88.6324 137.357 89.0258C137.938 89.4411 138.196 90.1622 138.002 90.8397C136.07 97.4836 130.23 104.521 122.893 109.154C127.238 115.317 130.79 122.201 133.462 129.676C133.677 130.266 133.528 130.943 133.08 131.38C132.63 131.839 131.961 131.992 131.369 131.774C123.89 129.108 116.995 125.545 110.84 121.196C106.216 128.539 99.1807 134.374 92.5258 136.313C92.375 136.357 92.222 136.376 92.0691 136.376" fill="#4E86BB"/>
<path d="M1.63961 200C0.734598 200 0.000488281 199.266 0.000488281 198.361V1.64982C0.000488281 0.731921 0.734598 0.010711 1.63961 0.010711H198.361C199.266 0.010711 200 0.731921 200 1.64982C200 2.54587 199.266 3.28894 198.361 3.28894H3.27874V198.361C3.27874 199.266 2.54441 200 1.63961 200Z" fill="#4E86BB"/>
<path d="M1.6388 62.9748C1.3195 62.9748 0.996693 62.8874 0.714108 62.6907C-0.032896 62.1881 -0.225008 61.1608 0.286399 60.4177C7.88014 49.3155 32.3204 43.6551 48.5562 48.5506C43.6421 32.3125 49.3142 7.87878 60.4185 0.295153C61.1655 -0.229363 62.1857 -0.0327973 62.6971 0.710267C63.2085 1.45333 63.0164 2.48059 62.2694 2.98326C51.6201 10.2828 46.4885 36.1151 52.8024 50.6486C53.0706 51.2605 52.934 51.9817 52.4576 52.4625C51.9805 52.9433 51.2599 53.0745 50.646 52.8123C36.103 46.4962 10.2748 51.6102 2.9927 62.2754C2.67515 62.7343 2.16113 62.9748 1.6388 62.9748" fill="#4E86BB"/>
<path d="M30.6392 117.896C30.6998 117.896 30.7597 117.896 30.8193 117.896C33.7588 117.961 35.9579 119.579 37.3555 120.803C37.6704 121.065 37.9753 121.349 38.2773 121.633C39.4077 122.66 40.3844 123.556 41.6992 123.84C43.5704 124.234 45.6868 123.381 46.8436 121.786C47.9925 120.212 47.8559 117.677 46.5243 115.885C44.8236 113.612 42.2189 112.891 40.3332 112.716C36.5383 112.323 32.2451 113.656 29.6249 116.016C28.872 116.694 28.2199 117.481 27.6777 118.355C28.697 118.049 29.7318 117.896 30.6392 117.896V117.896ZM41.8972 143.344C40.9607 143.344 40.0131 143.311 39.0543 143.25C29.8881 142.657 22.6331 134.79 22.5385 125.348C22.4941 120.715 24.2783 116.41 27.4353 113.569C30.7503 110.596 35.9493 108.979 40.6576 109.46C44.303 109.81 47.2405 111.361 49.1519 113.918C51.3418 116.869 51.4861 120.977 49.4944 123.709C47.5769 126.354 44.1758 127.709 41.0341 127.053C38.8331 126.594 37.3597 125.239 36.0604 124.037C35.7811 123.775 35.5011 123.534 35.2109 123.272C33.5752 121.852 32.1973 121.218 30.7459 121.174C28.9881 121.13 26.2016 122.092 25.8969 123.666C25.8379 124.19 25.8115 124.758 25.8167 125.305C25.8934 133.063 31.8013 139.497 39.2661 139.98C49.0717 140.601 57.7198 137.707 64.2618 131.577C71.1239 125.13 75.0613 115.667 75.0613 105.613C75.0613 93.6807 68.1085 81.9666 57.3484 75.7598C47.9396 70.3398 35.6762 69.5311 24.5463 73.6398C12.2222 78.1856 3.27874 90.7304 3.27874 103.45C3.27874 104.368 2.54441 105.089 1.63961 105.089C0.734598 105.089 0.000488281 104.368 0.000488281 103.45C0.000488281 89.3973 9.84704 75.5631 23.4127 70.5584C35.4438 66.1437 48.7439 67.0179 58.9867 72.9187C70.7432 79.6937 78.3395 92.5224 78.3395 105.613C78.3395 116.585 74.0258 126.922 66.5037 133.959C59.9276 140.129 51.4673 143.344 41.8972 143.344" fill="#4E86BB"/>
<path d="M118.356 27.6792C117.482 28.2256 116.695 28.8811 116.018 29.6242C113.664 32.2467 112.335 36.5521 112.713 40.333C112.899 42.2126 113.603 44.8134 115.885 46.5181C117.672 47.8513 120.212 47.9824 121.792 46.8459C123.381 45.6876 124.222 43.5677 123.835 41.7101C123.562 40.3769 122.664 39.4153 121.626 38.2788C121.348 37.9728 121.071 37.6668 120.798 37.3609C119.587 35.9622 117.97 33.7547 117.904 30.8262C117.882 29.8646 118.029 28.772 118.356 27.6792V27.6792ZM105.606 78.3387C92.5281 78.3387 79.6979 70.7332 72.9167 58.9972C67.0074 48.7472 66.129 35.4377 70.5673 23.4175C75.5675 9.84566 89.4007 0.0108567 103.458 0.0108567C104.363 0.0108567 105.097 0.732066 105.097 1.64997C105.097 2.54602 104.363 3.28908 103.458 3.28908C90.7251 3.28908 78.186 12.2279 73.6426 24.554C69.5386 35.6781 70.3285 47.9386 75.7555 57.358C81.9636 68.1106 93.6799 75.0605 105.606 75.0605C115.675 75.0605 125.14 71.1265 131.574 64.2641C137.707 57.7295 140.613 49.0751 139.98 39.2623C139.497 31.8098 133.056 25.8871 125.315 25.8215C124.74 25.7997 124.192 25.8433 123.645 25.9088C122.083 26.2148 121.143 28.9686 121.182 30.7389C121.213 32.2032 121.86 33.58 123.278 35.2191C123.527 35.5032 123.785 35.7873 124.039 36.0496C125.234 37.3609 126.589 38.8251 127.044 41.0324C127.695 44.1795 126.357 47.5671 123.72 49.4903C120.979 51.4791 116.861 51.348 113.924 49.1625C111.361 47.2392 109.813 44.3106 109.45 40.6609C108.981 35.9402 110.6 30.7606 113.579 27.4387C116.416 24.2697 120.664 22.5433 125.348 22.5433C134.796 22.6307 142.659 29.8865 143.251 39.0437C143.944 49.7963 140.734 59.2812 133.965 66.4933C126.915 74.0332 116.577 78.3387 105.606 78.3387" fill="#4E86BB"/>
</svg>
