<svg fill="none" xmlns="http://www.w3.org/2000/svg" viewBox="146.23 -4.02 525.08 472.55">
<path d="M326.236 389.84H238.396C206.956 389.84 183.676 381.68 168.556 365.36C153.676 349.04 146.236 327.92 146.236 302V200.84C146.236 187.64 148.156 176.24 151.996 166.64C155.836 156.8 161.476 148.64 168.916 142.16L215.716 102.92C223.156 96.68 232.636 92 244.156 88.88C255.676 85.76 269.236 84.2 284.836 84.2H372.676C378.436 84.2 382.636 85.52 385.276 88.16C387.916 90.8 389.236 95 389.236 100.76V144.32C389.236 147.44 388.756 150.08 387.796 152.24C387.076 154.4 385.876 156.2 384.196 157.64L337.396 196.52C336.436 197.48 334.876 198.32 332.716 199.04C330.796 199.76 328.636 200.12 326.236 200.12H281.956V260.96C281.956 266 283.516 269.6 286.636 271.76C289.756 273.68 294.316 274.64 300.316 274.64H372.676C378.436 274.64 382.636 275.96 385.276 278.6C387.916 281.24 389.236 285.44 389.236 291.2V334.04C389.236 337.16 388.756 339.8 387.796 341.96C387.076 344.12 385.876 345.92 384.196 347.36L337.396 386.24C336.436 387.2 334.876 388.04 332.716 388.76C330.796 389.48 328.636 389.84 326.236 389.84ZM372.676 347C377.236 347 380.476 346.04 382.396 344.12C384.556 341.96 385.636 338.6 385.636 334.04V291.2C385.636 286.64 384.556 283.4 382.396 281.48C380.476 279.32 377.236 278.24 372.676 278.24H300.316C292.876 278.24 287.356 276.92 283.756 274.28C280.156 271.4 278.356 266.96 278.356 260.96V175.28C278.356 169.28 280.156 164.84 283.756 161.96C287.356 158.84 292.876 157.28 300.316 157.28H372.676C377.236 157.28 380.476 156.32 382.396 154.4C384.556 152.24 385.636 148.88 385.636 144.32V100.76C385.636 96.2 384.556 92.96 382.396 91.04C380.476 88.88 377.236 87.8 372.676 87.8H284.836C254.836 87.8 232.516 93.92 217.876 106.16C203.476 118.16 196.276 136.64 196.276 161.6V273.56C196.276 298.52 203.476 317 217.876 329C232.516 341 254.836 347 284.836 347H372.676ZM352.876 311V314.6H292.756C269.476 314.6 253.996 311 246.316 303.8C238.876 296.6 235.156 284.72 235.156 268.16V167.36C235.156 150.32 238.996 138.2 246.676 131C254.356 123.8 269.716 120.2 292.756 120.2H352.876V123.8H292.756C271.636 123.8 257.356 127.16 249.916 133.88C242.476 140.36 238.756 151.52 238.756 167.36V268.16C238.756 283.76 242.356 294.8 249.556 301.28C256.756 307.76 271.156 311 292.756 311H352.876ZM608.31 389.84H552.87C547.11 389.84 542.91 388.52 540.27 385.88C537.63 383.24 536.31 379.04 536.31 373.28V329.72H479.07C454.35 329.72 436.59 322.76 425.79 308.84C415.23 294.92 409.95 277.16 409.95 255.56V140C409.95 136.88 410.31 134.24 411.03 132.08C411.99 129.92 413.31 128.12 414.99 126.68L461.43 87.44C462.63 86.48 464.19 85.76 466.11 85.28C468.27 84.56 470.55 84.2 472.95 84.2H528.75C534.51 84.2 538.71 85.52 541.35 88.16C543.99 90.8 545.31 95 545.31 100.76V123.44L587.79 87.44C588.99 86.48 590.55 85.76 592.47 85.28C594.63 84.56 596.91 84.2 599.31 84.2H654.75C660.51 84.2 664.71 85.52 667.35 88.16C669.99 90.8 671.31 95 671.31 100.76V334.04C671.31 337.16 670.83 339.8 669.87 341.96C669.15 344.12 667.95 345.92 666.27 347.36L619.47 386.24C618.51 387.2 616.95 388.04 614.79 388.76C612.87 389.48 610.71 389.84 608.31 389.84ZM586.35 286.88V334.04C586.35 338.6 587.31 341.96 589.23 344.12C591.39 346.04 594.75 347 599.31 347H654.75C659.31 347 662.55 346.04 664.47 344.12C666.63 341.96 667.71 338.6 667.71 334.04V100.76C667.71 96.2 666.63 92.96 664.47 91.04C662.55 88.88 659.31 87.8 654.75 87.8H599.31C594.75 87.8 591.39 88.88 589.23 91.04C587.31 92.96 586.35 96.2 586.35 100.76V211.64H552.87C549.51 211.64 546.75 210.56 544.59 208.4C542.67 206.24 541.71 203.24 541.71 199.4V100.76C541.71 96.2 540.63 92.96 538.47 91.04C536.55 88.88 533.31 87.8 528.75 87.8H472.95C468.39 87.8 465.03 88.88 462.87 91.04C460.95 92.96 459.99 96.2 459.99 100.76V227.12C459.99 247.52 465.03 262.64 475.11 272.48C485.43 282.08 502.23 286.88 525.51 286.88H586.35ZM625.23 314.6V250.88H539.19C525.51 250.88 515.43 247.76 508.95 241.52C502.47 235.04 499.23 225.56 499.23 213.08V120.2H502.83V213.08C502.83 224.6 505.83 233.24 511.83 239C517.83 244.52 526.95 247.28 539.19 247.28H625.23V120.2H628.83V314.6H625.23Z" fill="#0D489C"/>
<path d="M366.578 435.383C366.281 435.383 365.986 435.388 365.694 435.399C359.446 435.632 356.673 440.61 356.738 445.136C356.806 449.657 359.723 454.544 365.973 454.59C366.042 454.591 366.113 454.591 366.182 454.591C373.39 454.591 381.769 451.24 391.111 444.625C381.866 438.489 373.622 435.383 366.578 435.383V435.383ZM431.635 444.625C440.978 451.24 449.357 454.591 456.563 454.591C456.633 454.591 456.703 454.591 456.773 454.59C463.023 454.544 465.941 449.657 466.009 445.136C466.074 440.61 463.301 435.632 457.054 435.399C449.821 435.136 441.27 438.23 431.635 444.625V444.625ZM394.585 444.574C402.279 450.026 408.327 456.093 411.373 459.225C414.421 456.093 420.467 450.026 428.162 444.574C420.478 438.801 414.302 432.497 411.373 429.333C408.445 432.497 402.269 438.801 394.585 444.574ZM410.657 459.963L411.373 460.665L410.657 459.963ZM411.418 461.623C411.149 461.623 410.845 461.56 410.657 461.366L410.565 461.272C407.755 458.372 401.259 451.67 392.879 445.827C382.947 452.978 373.97 456.601 366.183 456.601C366.107 456.601 366.031 456.6 365.955 456.6C358.365 456.543 354.819 450.633 354.739 445.166C354.658 439.692 358.029 433.675 365.619 433.392C373.437 433.077 382.597 436.452 392.843 443.369C401.37 437.054 408.101 429.967 410.634 427.172C411.014 426.754 411.733 426.754 412.113 427.172C414.646 429.967 421.377 437.054 429.903 443.369C440.15 436.454 449.307 433.078 457.129 433.392C464.718 433.675 468.089 439.692 468.007 445.166C467.927 450.633 464.382 456.543 456.789 456.6C456.714 456.6 456.638 456.601 456.562 456.601C448.777 456.601 439.801 452.978 429.867 445.827C421.486 451.671 414.99 458.374 412.179 461.273C411.991 461.466 411.687 461.623 411.418 461.623" fill="#0D489C"/>
<path d="M411.418 461.623C411.149 461.623 410.845 461.56 410.657 461.366L410.565 461.272C407.755 458.372 401.259 451.67 392.879 445.827C382.947 452.978 373.97 456.601 366.183 456.601C366.107 456.601 366.031 456.6 365.955 456.6C358.365 456.543 354.819 450.633 354.739 445.166C354.658 439.692 358.029 433.675 365.619 433.392C373.437 433.077 382.597 436.452 392.843 443.369C401.37 437.054 408.101 429.967 410.634 427.172C411.014 426.754 411.733 426.754 412.113 427.172C414.646 429.967 421.377 437.054 429.903 443.369C440.15 436.454 449.307 433.078 457.129 433.392C464.718 433.675 468.089 439.692 468.007 445.166C467.927 450.633 464.382 456.543 456.789 456.6C456.714 456.6 456.638 456.601 456.562 456.601C448.777 456.601 439.801 452.978 429.867 445.827C421.486 451.671 414.99 458.374 412.179 461.273C411.991 461.466 411.687 461.623 411.418 461.623M366.578 435.383C366.281 435.383 365.986 435.388 365.694 435.399C359.446 435.632 356.673 440.61 356.738 445.136C356.806 449.657 359.723 454.544 365.973 454.59C366.042 454.591 366.113 454.591 366.182 454.591C373.39 454.591 381.769 451.24 391.111 444.625C381.866 438.489 373.622 435.383 366.578 435.383V435.383ZM431.635 444.625C440.978 451.24 449.357 454.591 456.563 454.591C456.633 454.591 456.703 454.591 456.773 454.59C463.023 454.544 465.941 449.657 466.009 445.136C466.074 440.61 463.301 435.632 457.054 435.399C449.821 435.136 441.27 438.23 431.635 444.625V444.625ZM394.585 444.574C402.279 450.026 408.327 456.093 411.373 459.225C414.421 456.093 420.467 450.026 428.162 444.574C420.478 438.801 414.302 432.497 411.373 429.333C408.445 432.497 402.269 438.801 394.585 444.574ZM410.657 459.963L411.373 460.665L410.657 459.963Z" stroke="#0D489C" stroke-width="2"/>
<path d="M641.751 445.266L466.979 445.266C466.427 445.266 465.979 444.816 465.979 444.261C465.979 443.707 466.427 443.256 466.979 443.256L641.751 443.256C642.303 443.256 642.751 443.707 642.751 444.261C642.751 444.816 642.303 445.266 641.751 445.266Z" fill="#0D489C" stroke="#0D489C" stroke-width="2"/>
<path d="M643.161 444.261L652.244 453.389L661.327 444.261L652.244 435.134L643.161 444.261ZM652.244 455.814C651.988 455.814 651.732 455.717 651.536 455.521L641.04 444.973C640.852 444.784 640.746 444.529 640.746 444.261C640.746 443.995 640.852 443.74 641.04 443.551L651.536 433.002C651.912 432.625 652.576 432.625 652.95 433.002L663.448 443.551C663.636 443.74 663.741 443.995 663.741 444.261C663.741 444.529 663.636 444.784 663.448 444.973L652.95 455.521C652.754 455.717 652.5 455.814 652.244 455.814" fill="#0D489C"/>
<path d="M652.244 455.814C651.988 455.814 651.732 455.717 651.536 455.521L641.04 444.973C640.852 444.784 640.746 444.529 640.746 444.261C640.746 443.995 640.852 443.74 641.04 443.551L651.536 433.002C651.912 432.625 652.576 432.625 652.95 433.002L663.448 443.551C663.636 443.74 663.741 443.995 663.741 444.261C663.741 444.529 663.636 444.784 663.448 444.973L652.95 455.521C652.754 455.717 652.5 455.814 652.244 455.814M643.161 444.261L652.244 453.389L661.327 444.261L652.244 435.134L643.161 444.261Z" stroke="#0D489C" stroke-width="2"/>
<path d="M630.747 445.266C630.491 445.266 630.235 445.169 630.04 444.973C629.649 444.58 629.649 443.944 630.04 443.551L648.205 425.294C648.596 424.902 649.228 424.902 649.619 425.294C650.009 425.687 650.009 426.324 649.619 426.716L631.453 444.973C631.259 445.169 631.003 445.266 630.747 445.266" fill="#0D489C"/>
<path d="M630.747 445.266C630.491 445.266 630.235 445.169 630.04 444.973C629.649 444.58 629.649 443.944 630.04 443.551L648.205 425.294C648.596 424.902 649.228 424.902 649.619 425.294C650.009 425.687 650.009 426.324 649.619 426.716L631.453 444.973C631.259 445.169 631.003 445.266 630.747 445.266" stroke="#0D489C" stroke-width="2"/>
<path d="M648.912 463.522C648.656 463.522 648.4 463.424 648.205 463.228L630.04 444.973C629.649 444.58 629.649 443.944 630.04 443.551C630.431 443.159 631.063 443.159 631.453 443.551L649.619 461.807C650.009 462.199 650.009 462.836 649.619 463.228C649.424 463.424 649.168 463.522 648.912 463.522Z" fill="#0D489C" stroke="#0D489C" stroke-width="2"/>
<path d="M355.765 445.266L180.995 445.266C180.443 445.266 179.995 444.816 179.995 444.261C179.995 443.707 180.443 443.256 180.995 443.256L355.765 443.256C356.319 443.256 356.765 443.707 356.765 444.261C356.765 444.816 356.319 445.266 355.765 445.266Z" fill="#0D489C" stroke="#0D489C" stroke-width="2"/>
<path d="M161.415 444.261L170.497 453.389L179.58 444.261L170.497 435.134L161.415 444.261ZM170.497 455.814C170.241 455.814 169.987 455.717 169.791 455.521L159.293 444.973C159.105 444.784 159 444.529 159 444.261C159 443.995 159.105 443.74 159.293 443.551L169.791 433.002C170.165 432.625 170.829 432.625 171.205 433.002L181.701 443.551C181.889 443.74 181.995 443.995 181.995 444.261C181.995 444.529 181.889 444.784 181.701 444.973L171.205 455.521C171.009 455.717 170.753 455.814 170.497 455.814" fill="#0D489C"/>
<path d="M170.497 455.814C170.241 455.814 169.987 455.717 169.791 455.521L159.293 444.973C159.105 444.784 159 444.529 159 444.261C159 443.995 159.105 443.74 159.293 443.551L169.791 433.002C170.165 432.625 170.829 432.625 171.205 433.002L181.701 443.551C181.889 443.74 181.995 443.995 181.995 444.261C181.995 444.529 181.889 444.784 181.701 444.973L171.205 455.521C171.009 455.717 170.753 455.814 170.497 455.814M161.415 444.261L170.497 453.389L179.58 444.261L170.497 435.134L161.415 444.261Z" stroke="#0D489C" stroke-width="2"/>
<path d="M191.995 445.266C191.739 445.266 191.483 445.169 191.288 444.973L173.123 426.716C172.732 426.324 172.732 425.687 173.123 425.294C173.513 424.902 174.145 424.902 174.536 425.294L192.701 443.551C193.092 443.944 193.092 444.58 192.701 444.973C192.507 445.169 192.251 445.266 191.995 445.266" fill="#0D489C"/>
<path d="M191.995 445.266C191.739 445.266 191.483 445.169 191.288 444.973L173.123 426.716C172.732 426.324 172.732 425.687 173.123 425.294C173.513 424.902 174.145 424.902 174.536 425.294L192.701 443.551C193.092 443.944 193.092 444.58 192.701 444.973C192.507 445.169 192.251 445.266 191.995 445.266" stroke="#0D489C" stroke-width="2"/>
<path d="M173.829 463.522C173.573 463.522 173.317 463.424 173.123 463.228C172.732 462.836 172.732 462.199 173.123 461.807L191.288 443.551C191.679 443.159 192.311 443.159 192.701 443.551C193.092 443.944 193.092 444.58 192.701 444.973L174.536 463.228C174.341 463.424 174.085 463.522 173.829 463.522" fill="#0D489C"/>
<path d="M173.829 463.522C173.573 463.522 173.317 463.424 173.123 463.228C172.732 462.836 172.732 462.199 173.123 461.807L191.288 443.551C191.679 443.159 192.311 443.159 192.701 443.551C193.092 443.944 193.092 444.58 192.701 444.973L174.536 463.228C174.341 463.424 174.085 463.522 173.829 463.522" stroke="#0D489C" stroke-width="2"/>
<path d="M428.064 462.029C427.808 462.029 427.552 461.931 427.356 461.734L418.982 453.319C418.592 452.927 418.592 452.292 418.982 451.899C419.373 451.506 420.006 451.506 420.397 451.899L428.77 460.314C429.161 460.707 429.161 461.342 428.77 461.734C428.574 461.931 428.318 462.029 428.064 462.029" fill="#0D489C"/>
<path d="M428.064 462.029C427.808 462.029 427.552 461.931 427.356 461.734L418.982 453.319C418.592 452.927 418.592 452.292 418.982 451.899C419.373 451.506 420.006 451.506 420.397 451.899L428.77 460.314C429.161 460.707 429.161 461.342 428.77 461.734C428.574 461.931 428.318 462.029 428.064 462.029" stroke="#0D489C" stroke-width="2"/>
<path d="M403.212 437.052C402.956 437.052 402.7 436.953 402.505 436.758L395.225 429.441C394.834 429.049 394.834 428.412 395.225 428.02C395.616 427.627 396.248 427.627 396.638 428.02L403.919 435.336C404.309 435.728 404.309 436.365 403.919 436.758C403.724 436.953 403.468 437.052 403.212 437.052Z" fill="#0D489C" stroke="#0D489C" stroke-width="2"/>
<path d="M394.679 462.029C394.423 462.029 394.167 461.931 393.972 461.734C393.582 461.342 393.582 460.707 393.972 460.314L402.344 451.899C402.735 451.506 403.368 451.506 403.759 451.899C404.15 452.292 404.15 452.927 403.759 453.319L395.386 461.734C395.191 461.931 394.935 462.029 394.679 462.029" fill="#0D489C"/>
<path d="M394.679 462.029C394.423 462.029 394.167 461.931 393.972 461.734C393.582 461.342 393.582 460.707 393.972 460.314L402.344 451.899C402.735 451.506 403.368 451.506 403.759 451.899C404.15 452.292 404.15 452.927 403.759 453.319L395.386 461.734C395.191 461.931 394.935 462.029 394.679 462.029" stroke="#0D489C" stroke-width="2"/>
<path d="M419.53 437.052C419.274 437.052 419.018 436.953 418.822 436.758C418.432 436.365 418.432 435.728 418.822 435.336L426.102 428.02C426.493 427.627 427.126 427.627 427.517 428.02C427.908 428.412 427.908 429.049 427.517 429.442L420.237 436.758C420.041 436.953 419.785 437.052 419.53 437.052" fill="#0D489C"/>
<path d="M419.53 437.052C419.274 437.052 419.018 436.953 418.822 436.758C418.432 436.365 418.432 435.728 418.822 435.336L426.102 428.02C426.493 427.627 427.126 427.627 427.517 428.02C427.908 428.412 427.908 429.049 427.517 429.442L420.237 436.758C420.041 436.953 419.785 437.052 419.53 437.052" stroke="#0D489C" stroke-width="2"/>
<path d="M366.578 11.383C366.281 11.383 365.986 11.3884 365.694 11.3991C359.446 11.6322 356.673 16.6101 356.738 21.1365C356.806 25.6574 359.723 30.5442 365.973 30.5898C366.042 30.5911 366.113 30.5911 366.182 30.5911C373.39 30.5911 381.769 27.2399 391.111 20.6246C381.866 14.489 373.622 11.383 366.578 11.383V11.383ZM431.635 20.6246C440.978 27.2399 449.357 30.5911 456.563 30.5911C456.633 30.5911 456.703 30.5911 456.773 30.5898C463.023 30.5442 465.941 25.6574 466.009 21.1365C466.074 16.6101 463.301 11.6322 457.054 11.3991C449.821 11.1365 441.27 14.2303 431.635 20.6246V20.6246ZM394.585 20.5737C402.279 26.0259 408.327 32.0932 411.373 35.2246C414.421 32.0932 420.467 26.0259 428.162 20.5737C420.478 14.8012 414.302 8.4967 411.373 5.33309C408.445 8.4967 402.269 14.8012 394.585 20.5737ZM410.657 35.963L411.373 36.6651L410.657 35.963ZM411.418 37.6232C411.149 37.6232 410.845 37.5601 410.657 37.3658L410.565 37.2721C407.755 34.3724 401.259 27.67 392.879 21.8265C382.947 28.9778 373.97 32.601 366.183 32.601C366.107 32.601 366.031 32.5997 365.955 32.5997C358.365 32.5434 354.819 26.6329 354.739 21.1659C354.658 15.6922 358.029 9.67452 365.619 9.39179C373.437 9.0769 382.597 12.4522 392.843 19.369C401.37 13.0539 408.101 5.9669 410.634 3.17177C411.014 2.75371 411.733 2.75371 412.113 3.17177C414.646 5.9669 421.377 13.0539 429.903 19.369C440.15 12.4536 449.307 9.07824 457.129 9.39179C464.718 9.67452 468.089 15.6922 468.007 21.1659C467.927 26.6329 464.382 32.5434 456.789 32.5997C456.714 32.5997 456.638 32.601 456.562 32.601C448.777 32.601 439.801 28.9778 429.867 21.8265C421.486 27.6714 414.99 34.3738 412.179 37.2734C411.991 37.4663 411.687 37.6232 411.418 37.6232" fill="#0D489C"/>
<path d="M411.418 37.6232C411.149 37.6232 410.845 37.5601 410.657 37.3658L410.565 37.2721C407.755 34.3724 401.259 27.67 392.879 21.8265C382.947 28.9778 373.97 32.601 366.183 32.601C366.107 32.601 366.031 32.5997 365.955 32.5997C358.365 32.5434 354.819 26.6329 354.739 21.1659C354.658 15.6922 358.029 9.67452 365.619 9.39179C373.437 9.0769 382.597 12.4522 392.843 19.369C401.37 13.0539 408.101 5.9669 410.634 3.17177C411.014 2.75371 411.733 2.75371 412.113 3.17177C414.646 5.9669 421.377 13.0539 429.903 19.369C440.15 12.4536 449.307 9.07824 457.129 9.39179C464.718 9.67452 468.089 15.6922 468.007 21.1659C467.927 26.6329 464.382 32.5434 456.789 32.5997C456.714 32.5997 456.638 32.601 456.562 32.601C448.777 32.601 439.801 28.9778 429.867 21.8265C421.486 27.6714 414.99 34.3738 412.179 37.2734C411.991 37.4663 411.687 37.6232 411.418 37.6232M366.578 11.383C366.281 11.383 365.986 11.3884 365.694 11.3991C359.446 11.6322 356.673 16.6101 356.738 21.1365C356.806 25.6574 359.723 30.5442 365.973 30.5898C366.042 30.5911 366.113 30.5911 366.182 30.5911C373.39 30.5911 381.769 27.2399 391.111 20.6246C381.866 14.489 373.622 11.383 366.578 11.383V11.383ZM431.635 20.6246C440.978 27.2399 449.357 30.5911 456.563 30.5911C456.633 30.5911 456.703 30.5911 456.773 30.5898C463.023 30.5442 465.941 25.6574 466.009 21.1365C466.074 16.6101 463.301 11.6322 457.054 11.3991C449.821 11.1365 441.27 14.2303 431.635 20.6246V20.6246ZM394.585 20.5737C402.279 26.0259 408.327 32.0932 411.373 35.2246C414.421 32.0932 420.467 26.0259 428.162 20.5737C420.478 14.8012 414.302 8.4967 411.373 5.33309C408.445 8.4967 402.269 14.8012 394.585 20.5737ZM410.657 35.963L411.373 36.6651L410.657 35.963Z" stroke="#0D489C" stroke-width="2"/>
<path d="M641.751 21.2663L466.979 21.2663C466.427 21.2663 465.979 20.8161 465.979 20.2614C465.979 19.7066 466.427 19.2564 466.979 19.2564L641.751 19.2564C642.303 19.2564 642.751 19.7066 642.751 20.2614C642.751 20.8161 642.303 21.2663 641.751 21.2663Z" fill="#0D489C" stroke="#0D489C" stroke-width="2"/>
<path d="M643.161 20.2614L652.244 29.3891L661.327 20.2614L652.244 11.1337L643.161 20.2614ZM652.244 31.8145C651.988 31.8145 651.732 31.7166 651.536 31.521L641.04 20.9729C640.852 20.784 640.746 20.5294 640.746 20.2614C640.746 19.9948 640.852 19.7402 641.04 19.5513L651.536 9.00179C651.912 8.62526 652.576 8.62526 652.95 9.00179L663.448 19.5513C663.636 19.7402 663.741 19.9947 663.741 20.2614C663.741 20.5294 663.636 20.784 663.448 20.9729L652.95 31.521C652.754 31.7166 652.5 31.8145 652.244 31.8145" fill="#0D489C"/>
<path d="M652.244 31.8145C651.988 31.8145 651.732 31.7166 651.536 31.521L641.04 20.9729C640.852 20.784 640.746 20.5294 640.746 20.2614C640.746 19.9948 640.852 19.7402 641.04 19.5513L651.536 9.00179C651.912 8.62526 652.576 8.62526 652.95 9.00179L663.448 19.5513C663.636 19.7402 663.741 19.9947 663.741 20.2614C663.741 20.5294 663.636 20.784 663.448 20.9729L652.95 31.521C652.754 31.7166 652.5 31.8145 652.244 31.8145M643.161 20.2614L652.244 29.3891L661.327 20.2614L652.244 11.1337L643.161 20.2614Z" stroke="#0D489C" stroke-width="2"/>
<path d="M630.747 21.2663C630.491 21.2663 630.235 21.1685 630.04 20.9729C629.649 20.5803 629.649 19.9438 630.04 19.5512L648.205 1.29445C648.596 0.901849 649.228 0.901849 649.619 1.29445C650.009 1.68706 650.009 2.32358 649.619 2.71618L631.453 20.9729C631.259 21.1685 631.003 21.2663 630.747 21.2663" fill="#0D489C"/>
<path d="M630.747 21.2663C630.491 21.2663 630.235 21.1685 630.04 20.9729C629.649 20.5803 629.649 19.9438 630.04 19.5512L648.205 1.29445C648.596 0.901849 649.228 0.901849 649.619 1.29445C650.009 1.68706 650.009 2.32358 649.619 2.71618L631.453 20.9729C631.259 21.1685 631.003 21.2663 630.747 21.2663" stroke="#0D489C" stroke-width="2"/>
<path d="M648.912 39.5218C648.656 39.5218 648.4 39.424 648.205 39.2284L630.04 20.973C629.649 20.5803 629.649 19.9439 630.04 19.5513C630.431 19.1587 631.063 19.1587 631.453 19.5513L649.619 37.8067C650.009 38.1993 650.009 38.8358 649.619 39.2284C649.424 39.424 649.168 39.5218 648.912 39.5218Z" fill="#0D489C" stroke="#0D489C" stroke-width="2"/>
<path d="M355.765 21.2664L180.995 21.2664C180.443 21.2664 179.995 20.8161 179.995 20.2614C179.995 19.7066 180.443 19.2564 180.995 19.2564L355.765 19.2564C356.319 19.2564 356.765 19.7067 356.765 20.2614C356.765 20.8161 356.319 21.2664 355.765 21.2664Z" fill="#0D489C" stroke="#0D489C" stroke-width="2"/>
<path d="M161.415 20.2614L170.497 29.3891L179.58 20.2614L170.497 11.1337L161.415 20.2614ZM170.497 31.8144C170.241 31.8144 169.987 31.7166 169.791 31.521L159.293 20.9729C159.105 20.784 159 20.5294 159 20.2614C159 19.9947 159.105 19.7402 159.293 19.5512L169.791 9.00179C170.165 8.62526 170.829 8.62526 171.205 9.00179L181.701 19.5512C181.889 19.7402 181.995 19.9947 181.995 20.2614C181.995 20.5294 181.889 20.784 181.701 20.9729L171.205 31.521C171.009 31.7166 170.753 31.8144 170.497 31.8144" fill="#0D489C"/>
<path d="M170.497 31.8144C170.241 31.8144 169.987 31.7166 169.791 31.521L159.293 20.9729C159.105 20.784 159 20.5294 159 20.2614C159 19.9947 159.105 19.7402 159.293 19.5512L169.791 9.00179C170.165 8.62526 170.829 8.62526 171.205 9.00179L181.701 19.5512C181.889 19.7402 181.995 19.9947 181.995 20.2614C181.995 20.5294 181.889 20.784 181.701 20.9729L171.205 31.521C171.009 31.7166 170.753 31.8144 170.497 31.8144M161.415 20.2614L170.497 29.3891L179.58 20.2614L170.497 11.1337L161.415 20.2614Z" stroke="#0D489C" stroke-width="2"/>
<path d="M191.995 21.2663C191.739 21.2663 191.483 21.1685 191.288 20.9729L173.123 2.71618C172.732 2.32358 172.732 1.68706 173.123 1.29445C173.513 0.901849 174.145 0.901849 174.536 1.29445L192.701 19.5512C193.092 19.9438 193.092 20.5803 192.701 20.9729C192.507 21.1685 192.251 21.2663 191.995 21.2663" fill="#0D489C"/>
<path d="M191.995 21.2663C191.739 21.2663 191.483 21.1685 191.288 20.9729L173.123 2.71618C172.732 2.32358 172.732 1.68706 173.123 1.29445C173.513 0.901849 174.145 0.901849 174.536 1.29445L192.701 19.5512C193.092 19.9438 193.092 20.5803 192.701 20.9729C192.507 21.1685 192.251 21.2663 191.995 21.2663" stroke="#0D489C" stroke-width="2"/>
<path d="M173.829 39.5218C173.573 39.5218 173.317 39.424 173.123 39.2284C172.732 38.8358 172.732 38.1993 173.123 37.8067L191.288 19.5513C191.679 19.1587 192.311 19.1587 192.701 19.5513C193.092 19.9439 193.092 20.5803 192.701 20.973L174.536 39.2284C174.341 39.424 174.085 39.5218 173.829 39.5218" fill="#0D489C"/>
<path d="M173.829 39.5218C173.573 39.5218 173.317 39.424 173.123 39.2284C172.732 38.8358 172.732 38.1993 173.123 37.8067L191.288 19.5513C191.679 19.1587 192.311 19.1587 192.701 19.5513C193.092 19.9439 193.092 20.5803 192.701 20.973L174.536 39.2284C174.341 39.424 174.085 39.5218 173.829 39.5218" stroke="#0D489C" stroke-width="2"/>
<path d="M428.064 38.029C427.808 38.029 427.552 37.9312 427.356 37.7342L418.982 29.3194C418.592 28.9268 418.592 28.2917 418.982 27.8991C419.373 27.5065 420.006 27.5065 420.397 27.8991L428.77 36.3139C429.161 36.7065 429.161 37.3416 428.77 37.7342C428.574 37.9312 428.318 38.029 428.064 38.029" fill="#0D489C"/>
<path d="M428.064 38.029C427.808 38.029 427.552 37.9312 427.356 37.7342L418.982 29.3194C418.592 28.9268 418.592 28.2917 418.982 27.8991C419.373 27.5065 420.006 27.5065 420.397 27.8991L428.77 36.3139C429.161 36.7065 429.161 37.3416 428.77 37.7342C428.574 37.9312 428.318 38.029 428.064 38.029" stroke="#0D489C" stroke-width="2"/>
<path d="M403.212 13.0523C402.956 13.0523 402.7 12.9532 402.505 12.7575L395.225 5.44146C394.834 5.04886 394.834 4.41233 395.225 4.01973C395.616 3.62712 396.248 3.62712 396.638 4.01973L403.919 11.3358C404.309 11.7284 404.309 12.3649 403.919 12.7575C403.724 12.9532 403.468 13.0523 403.212 13.0523Z" fill="#0D489C" stroke="#0D489C" stroke-width="2"/>
<path d="M394.679 38.029C394.423 38.029 394.167 37.9312 393.972 37.7342C393.582 37.3416 393.582 36.7065 393.972 36.3139L402.344 27.899C402.735 27.5064 403.368 27.5064 403.759 27.899C404.15 28.2916 404.15 28.9268 403.759 29.3194L395.386 37.7342C395.191 37.9312 394.935 38.029 394.679 38.029" fill="#0D489C"/>
<path d="M394.679 38.029C394.423 38.029 394.167 37.9312 393.972 37.7342C393.582 37.3416 393.582 36.7065 393.972 36.3139L402.344 27.899C402.735 27.5064 403.368 27.5064 403.759 27.899C404.15 28.2916 404.15 28.9268 403.759 29.3194L395.386 37.7342C395.191 37.9312 394.935 38.029 394.679 38.029" stroke="#0D489C" stroke-width="2"/>
<path d="M419.53 13.0523C419.274 13.0523 419.018 12.9532 418.822 12.7575C418.432 12.3649 418.432 11.7284 418.822 11.3358L426.102 4.01977C426.493 3.62716 427.126 3.62716 427.517 4.01977C427.908 4.41237 427.908 5.04889 427.517 5.44149L420.237 12.7575C420.041 12.9532 419.785 13.0523 419.53 13.0523" fill="#0D489C"/>
<path d="M419.53 13.0523C419.274 13.0523 419.018 12.9532 418.822 12.7575C418.432 12.3649 418.432 11.7284 418.822 11.3358L426.102 4.01977C426.493 3.62716 427.126 3.62716 427.517 4.01977C427.908 4.41237 427.908 5.04889 427.517 5.44149L420.237 12.7575C420.041 12.9532 419.785 13.0523 419.53 13.0523" stroke="#0D489C" stroke-width="2"/>
</svg>