<svg width="505" height="42" viewBox="0 0 505 42" fill="none" xmlns="http://www.w3.org/2000/svg">
<path d="M207.749 11.6783C207.452 11.6765 207.157 11.68 206.865 11.6889C200.616 11.883 197.812 16.8435 197.849 21.3702C197.889 25.8915 200.775 30.7964 207.024 30.8809C207.094 30.8827 207.164 30.8831 207.234 30.8835C214.441 30.9285 222.841 27.6297 232.225 21.0728C223.018 14.8796 214.793 11.7223 207.749 11.6783V11.6783ZM272.748 21.3257C282.049 27.9992 290.407 31.4027 297.613 31.4476C297.682 31.4481 297.753 31.4485 297.822 31.4476C304.073 31.4411 307.021 26.5726 307.117 22.0522C307.211 17.5263 304.469 12.5312 298.224 12.2591C290.992 11.9513 282.422 14.9918 272.748 21.3257V21.3257ZM235.698 21.0436C243.359 26.5438 249.369 32.6486 252.394 35.799C255.462 32.6867 261.546 26.6573 269.275 21.2532C261.627 15.4328 255.491 9.08993 252.581 5.9081C249.633 9.05338 243.418 15.3192 235.698 21.0436ZM251.674 36.5329L252.385 37.2395L251.674 36.5329ZM252.425 38.1978C252.155 38.1962 251.852 38.1312 251.665 37.9358L251.574 37.8414C248.783 34.9243 242.328 28.1815 233.985 22.2858C224.009 29.375 215.009 32.942 207.222 32.8934C207.146 32.893 207.07 32.8912 206.994 32.8907C199.404 32.787 195.896 26.8545 195.85 21.3871C195.803 15.9131 199.211 9.91651 206.803 9.68116C214.622 9.41507 223.761 12.8475 233.964 19.8281C242.53 13.5663 249.305 6.52148 251.856 3.74221C252.238 3.32653 252.957 3.33102 253.334 3.75144C255.85 6.56233 262.537 13.6912 271.024 20.0594C281.313 13.208 290.492 9.88994 298.311 10.2523C305.898 10.5824 309.231 16.621 309.116 22.0941C309.002 27.5605 305.419 33.4487 297.826 33.4576C297.751 33.4572 297.675 33.458 297.599 33.4575C289.814 33.4089 280.861 29.7298 270.972 22.5166C262.555 28.3091 256.017 34.9708 253.188 37.8528C252.999 38.0446 252.694 38.1995 252.425 38.1978" fill="#0D489C"/>
<path d="M482.855 23.2789L308.087 22.1881C307.535 22.1847 307.09 21.7317 307.093 21.1769C307.096 20.6222 307.547 20.1748 308.099 20.1782L482.868 21.269C483.42 21.2725 483.865 21.7255 483.862 22.2802C483.858 22.8349 483.407 23.2824 482.855 23.2789Z" fill="#0D489C"/>
<path d="M484.272 22.2828L493.298 31.467L502.437 22.3962L493.411 13.2119L484.272 22.2828ZM493.282 33.8923C493.026 33.8907 492.771 33.7913 492.576 33.5944L482.146 22.9811C481.959 22.791 481.856 22.5357 481.857 22.2677C481.859 22.0011 481.966 21.7472 482.155 21.5594L492.717 11.0757C493.095 10.7015 493.759 10.7056 494.131 11.0845L504.563 21.6993C504.75 21.8894 504.853 22.1446 504.852 22.4112C504.85 22.6792 504.743 22.9332 504.554 23.1209L493.991 33.6033C493.794 33.7977 493.538 33.8939 493.282 33.8923" fill="#0D489C"/>
<path d="M471.851 23.2102C471.595 23.2086 471.34 23.1092 471.147 22.9124C470.758 22.5174 470.762 21.8809 471.156 21.4908L489.434 3.34772C489.828 2.95756 490.46 2.96151 490.848 3.35654C491.236 3.75157 491.232 4.38808 490.839 4.77824L472.56 22.9212C472.364 23.1156 472.107 23.2118 471.851 23.2102" fill="#0D489C"/>
<path d="M489.902 41.5788C489.646 41.5772 489.391 41.4777 489.198 41.2809L471.147 22.9124C470.758 22.5174 470.762 21.8809 471.156 21.4908C471.549 21.1006 472.181 21.1046 472.569 21.4996L490.62 39.868C491.008 40.2631 491.004 40.8996 490.611 41.2897C490.415 41.4841 490.158 41.5803 489.902 41.5788Z" fill="#0D489C"/>
<path d="M196.875 21.494L22.1081 20.4032C21.5561 20.3998 21.111 19.9468 21.1144 19.392C21.1179 18.8373 21.5687 18.3899 22.1207 18.3933L196.888 19.4841C197.441 19.4876 197.885 19.9406 197.882 20.4953C197.878 21.05 197.429 21.4975 196.875 21.494Z" fill="#0D489C"/>
<path d="M2.5348 19.2761L11.5603 28.4603L20.6998 19.3894L11.6743 10.2052L2.5348 19.2761ZM11.5452 30.8856C11.2892 30.884 11.0351 30.7846 10.8404 30.5877L0.409082 19.9743C0.222265 19.7842 0.118529 19.529 0.120202 19.261C0.121866 18.9944 0.228779 18.7405 0.417955 18.5527L10.9809 8.06896C11.3579 7.69478 12.0219 7.69893 12.3956 8.07779L22.8255 18.6926C23.0123 18.8827 23.1161 19.1379 23.1144 19.4045C23.1127 19.6725 23.0058 19.9264 22.8167 20.1142L12.255 30.5966C12.0578 30.791 11.8012 30.8872 11.5452 30.8856" fill="#0D489C"/>
<path d="M33.1079 20.4719C32.8519 20.4703 32.5965 20.3709 32.4031 20.174L14.352 1.80429C13.9638 1.40926 13.9678 0.772749 14.3609 0.382591C14.754 -0.00756759 15.386 -0.00362301 15.7742 0.391412L33.8252 18.7612C34.2135 19.1562 34.2095 19.7927 33.8164 20.1828C33.6205 20.3772 33.3639 20.4735 33.1079 20.4719" fill="#0D489C"/>
<path d="M14.829 38.6136C14.573 38.612 14.3176 38.5126 14.1241 38.3158C13.7359 37.9207 13.7399 37.2842 14.133 36.8941L32.4119 18.7524C32.805 18.3623 33.437 18.3662 33.8252 18.7612C34.2135 19.1563 34.2095 19.7927 33.8164 20.1829L15.5375 38.3246C15.3416 38.519 15.085 38.6152 14.829 38.6136" fill="#0D489C"/>
<path d="M269.068 38.7076C268.812 38.706 268.556 38.6066 268.361 38.4084L260.041 29.9414C259.653 29.5464 259.657 28.9113 260.05 28.5211C260.443 28.131 261.076 28.1349 261.464 28.5299L269.785 36.9969C270.173 37.392 270.169 38.027 269.776 38.4172C269.579 38.613 269.322 38.7092 269.068 38.7076" fill="#0D489C"/>
<path d="M244.372 13.5763C244.116 13.5747 243.861 13.4739 243.667 13.2771L236.433 5.91573C236.045 5.52069 236.049 4.88418 236.442 4.49403C236.835 4.10387 237.467 4.10781 237.855 4.50285L245.09 11.8642C245.478 12.2592 245.474 12.8957 245.081 13.2859C244.885 13.4803 244.628 13.5779 244.372 13.5763Z" fill="#0D489C"/>
<path d="M235.684 38.4992C235.428 38.4976 235.172 38.3982 234.979 38.2C234.591 37.805 234.595 37.1699 234.988 36.7798L243.412 28.4173C243.805 28.0271 244.438 28.0311 244.827 28.4261C245.215 28.8211 245.211 29.4563 244.818 29.8464L236.392 38.2088C236.196 38.4046 235.94 38.5008 235.684 38.4992" fill="#0D489C"/>
<path d="M260.69 13.6781C260.434 13.6765 260.179 13.5758 259.984 13.3789C259.596 12.9839 259.6 12.3474 259.993 11.9572L267.319 4.68674C267.712 4.29658 268.345 4.30054 268.733 4.69557C269.122 5.0906 269.118 5.72711 268.724 6.11727L261.399 13.3877C261.202 13.5822 260.945 13.6797 260.69 13.6781" fill="#0D489C"/>
</svg>
