<svg width="200" height="200" viewBox="0 0 200 200" fill="none" xmlns="http://www.w3.org/2000/svg">
<path d="M94.2272 104.076C101.767 100.85 110.553 100.548 113.525 100.548C118.792 100.548 125.96 101.801 131.38 104.163C128.321 98.6426 122.857 93.8126 118.027 91.072C117.612 90.8403 117.328 90.4447 117.219 89.9858C117.131 89.529 117.24 89.046 117.503 88.6723C121.458 83.3331 124.78 77.3733 127.403 70.9129C120.934 73.5268 114.989 76.8422 109.635 80.798C109.263 81.0777 108.783 81.1826 108.324 81.0842C107.865 80.9881 107.471 80.6996 107.231 80.2909C104.499 75.461 99.669 69.9972 94.1397 66.9375C96.5001 72.3554 97.7678 79.526 97.7678 84.7799C97.7678 87.761 97.4618 96.5401 94.2272 104.076ZM136.376 107.931C136.376 108.46 136.121 108.969 135.668 109.279C135.096 109.679 134.309 109.664 133.763 109.24C129.26 105.85 119.928 103.827 113.525 103.827C106.378 103.827 96.6968 105.37 90.9053 109.701C90.2496 110.189 89.3318 110.123 88.7635 109.548C88.1953 108.969 88.1297 108.058 88.6105 107.406C92.9378 101.619 94.4895 91.9243 94.4895 84.7799C94.4895 78.372 92.4569 69.0574 89.0694 64.5597C88.6541 63.998 88.6324 63.2265 89.0258 62.643C89.4411 62.0617 90.1622 61.8038 90.8397 61.9983C97.4836 63.9303 104.521 69.7699 109.154 77.1066C115.317 72.7619 122.201 69.2104 129.676 66.5376C130.266 66.3234 130.943 66.472 131.38 66.92C131.839 67.3702 131.992 68.039 131.774 68.6313C129.108 76.1101 125.545 83.0053 121.196 89.1597C128.539 93.7842 134.374 100.819 136.313 107.474C136.357 107.625 136.376 107.778 136.376 107.931Z" fill="#4E86BB"/>
<path d="M200 198.36C200 199.265 199.266 200 198.361 200H1.64983C0.731918 200 0.0107117 199.265 0.0107117 198.36V1.63914C0.0107117 0.734344 0.731918 1.52588e-05 1.64983 1.52588e-05C2.54587 1.52588e-05 3.28894 0.734344 3.28894 1.63914V196.721H198.361C199.266 196.721 200 197.456 200 198.36Z" fill="#4E86BB"/>
<path d="M62.9748 198.361C62.9748 198.681 62.8874 199.003 62.6907 199.286C62.1881 200.033 61.1608 200.225 60.4177 199.714C49.3155 192.12 43.6551 167.68 48.5506 151.444C32.3125 156.358 7.87878 150.686 0.295155 139.582C-0.229362 138.835 -0.0327988 137.814 0.710266 137.303C1.45333 136.792 2.48059 136.984 2.98326 137.731C10.2828 148.38 36.1151 153.511 50.6486 147.198C51.2605 146.929 51.9817 147.066 52.4625 147.542C52.9433 148.02 53.0745 148.74 52.8123 149.354C46.4962 163.897 51.6102 189.725 62.2754 197.007C62.7343 197.325 62.9748 197.839 62.9748 198.361Z" fill="#4E86BB"/>
<path d="M117.896 169.361C117.896 169.3 117.896 169.24 117.896 169.181C117.961 166.241 119.579 164.042 120.803 162.645C121.065 162.33 121.349 162.025 121.633 161.723C122.66 160.592 123.556 159.616 123.84 158.301C124.234 156.43 123.381 154.313 121.786 153.156C120.212 152.007 117.677 152.144 115.885 153.476C113.612 155.176 112.891 157.781 112.716 159.667C112.323 163.462 113.656 167.755 116.016 170.375C116.694 171.128 117.481 171.78 118.355 172.322C118.049 171.303 117.896 170.268 117.896 169.361ZM143.344 158.103C143.344 159.039 143.311 159.987 143.25 160.946C142.657 170.112 134.79 177.367 125.348 177.462C120.715 177.506 116.41 175.722 113.569 172.565C110.596 169.25 108.979 164.051 109.46 159.342C109.81 155.697 111.361 152.759 113.918 150.848C116.869 148.658 120.977 148.514 123.709 150.506C126.354 152.423 127.709 155.824 127.053 158.966C126.594 161.167 125.239 162.64 124.037 163.94C123.775 164.219 123.534 164.499 123.272 164.789C121.852 166.425 121.218 167.803 121.174 169.254C121.13 171.012 122.092 173.798 123.666 174.103C124.19 174.162 124.758 174.189 125.305 174.183C133.063 174.107 139.497 168.199 139.98 160.734C140.601 150.928 137.707 142.28 131.577 135.738C125.13 128.876 115.667 124.939 105.613 124.939C93.6807 124.939 81.9666 131.891 75.7598 142.652C70.3398 152.06 69.5311 164.324 73.6398 175.454C78.1856 187.778 90.7304 196.721 103.45 196.721C104.368 196.721 105.089 197.456 105.089 198.36C105.089 199.265 104.368 200 103.45 200C89.3973 200 75.5631 190.153 70.5584 176.587C66.1437 164.556 67.0179 151.256 72.9187 141.013C79.6937 129.257 92.5224 121.66 105.613 121.66C116.585 121.66 126.922 125.974 133.959 133.496C140.129 140.072 143.344 148.533 143.344 158.103Z" fill="#4E86BB"/>
<path d="M27.6792 81.6437C28.2256 82.5178 28.8811 83.3046 29.6242 83.9821C32.2467 86.3359 36.5521 87.6647 40.333 87.2866C42.2126 87.1008 44.8134 86.3971 46.5181 84.1154C47.8513 82.3277 47.9824 79.7882 46.8459 78.208C45.6876 76.6192 43.5677 75.7778 41.7101 76.1646C40.3769 76.4378 39.4153 77.336 38.2788 78.3741C37.9728 78.6517 37.6668 78.9292 37.3609 79.2024C35.9622 80.4132 33.7547 82.0305 30.8262 82.096C29.8646 82.1179 28.772 81.9715 27.6792 81.6437ZM78.3387 94.3939C78.3387 107.472 70.7332 120.302 58.9972 127.083C48.7472 132.993 35.4377 133.871 23.4175 129.433C9.84566 124.432 0.0108566 110.599 0.0108566 96.5422C0.0108566 95.6374 0.732063 94.9031 1.64997 94.9031C2.54602 94.9031 3.28909 95.6374 3.28909 96.5422C3.28909 109.275 12.2279 121.814 24.554 126.357C35.6781 130.461 47.9386 129.672 57.358 124.245C68.1106 118.036 75.0605 106.32 75.0605 94.3939C75.0605 84.3253 71.1265 74.8599 64.2641 68.4257C57.7295 62.2932 49.0751 59.3865 39.2623 60.0203C31.8098 60.5033 25.8871 66.944 25.8215 74.685C25.7997 75.2598 25.8433 75.8083 25.9088 76.3547C26.2148 77.9174 28.9686 78.8571 30.7389 78.8178C32.2032 78.7872 33.58 78.1403 35.2191 76.7219C35.5032 76.4728 35.7873 76.2149 36.0496 75.9613C37.3609 74.7659 38.8251 73.4109 41.0324 72.9563C44.1795 72.305 47.5671 73.6425 49.4903 76.2804C51.4791 79.021 51.348 83.1385 49.1625 86.0759C47.2392 88.6394 44.3106 90.1868 40.6609 90.5496C35.9402 91.0194 30.7606 89.4 27.4387 86.4212C24.2697 83.5844 22.5433 79.3358 22.5433 74.6522C22.6307 65.2043 29.8865 57.3409 39.0437 56.7486C49.7963 56.0558 59.2812 59.2663 66.4933 66.0348C74.0332 73.0852 78.3387 83.4226 78.3387 94.3939Z" fill="#4E86BB"/>
</svg>
