<svg width="200" height="200" viewBox="0 0 200 200" fill="none" xmlns="http://www.w3.org/2000/svg">
<path d="M105.773 95.9243C98.2328 99.1501 89.4472 99.4517 86.475 99.4517C81.208 99.4517 74.0395 98.1994 68.6195 95.8369C71.6792 101.357 77.1431 106.187 81.973 108.928C82.3882 109.16 82.6722 109.555 82.7814 110.014C82.8688 110.471 82.7596 110.954 82.4974 111.328C78.5416 116.667 75.2197 122.627 72.5972 129.087C79.0662 126.473 85.0107 123.158 90.3651 119.202C90.7366 118.922 91.2174 118.817 91.6764 118.916C92.1353 119.012 92.5287 119.3 92.7691 119.709C95.501 124.539 100.331 130.003 105.86 133.062C103.5 127.645 102.232 120.474 102.232 115.22C102.232 112.239 102.538 103.46 105.773 95.9243ZM63.6237 92.0691C63.6237 91.5402 63.8792 91.031 64.3316 90.7206C64.9042 90.3207 65.6911 90.336 66.2375 90.76C70.7396 94.1497 80.0715 96.1734 86.475 96.1734C93.6215 96.1734 103.303 94.6305 109.095 90.2988C109.75 89.8114 110.668 89.877 111.236 90.4518C111.805 91.0309 111.87 91.9423 111.389 92.5936C107.062 98.3808 105.51 108.076 105.51 115.22C105.51 121.628 107.543 130.943 110.931 135.44C111.346 136.002 111.368 136.773 110.974 137.357C110.559 137.938 109.838 138.196 109.16 138.002C102.516 136.07 95.4792 130.23 90.846 122.893C84.6829 127.238 77.7985 130.79 70.3242 133.462C69.7341 133.677 69.0566 133.528 68.6195 133.08C68.1606 132.63 68.0076 131.961 68.2262 131.369C70.8925 123.89 74.4549 116.995 78.804 110.84C71.4608 106.216 65.6256 99.1807 63.687 92.5258C63.6433 92.375 63.6237 92.222 63.6237 92.0691Z" fill="#4E86BB"/>
<path d="M0 1.63961C0 0.734598 0.734323 0.000488281 1.63911 0.000488281L198.35 0.000488281C199.268 0.000488281 199.989 0.734598 199.989 1.63961V198.361C199.989 199.266 199.268 200 198.35 200C197.454 200 196.711 199.266 196.711 198.361V3.27874L1.63911 3.27874C0.734323 3.27874 0 2.54441 0 1.63961Z" fill="#4E86BB"/>
<path d="M137.025 1.6388C137.025 1.3195 137.113 0.996693 137.309 0.714108C137.812 -0.032896 138.839 -0.225008 139.582 0.286399C150.685 7.88014 156.345 32.3204 151.449 48.5562C167.688 43.6421 192.121 49.3142 199.705 60.4185C200.229 61.1655 200.033 62.1857 199.29 62.6971C198.547 63.2085 197.519 63.0164 197.017 62.2694C189.717 51.6201 163.885 46.4885 149.351 52.8024C148.739 53.0706 148.018 52.934 147.538 52.4576C147.057 51.9805 146.925 51.2599 147.188 50.646C153.504 36.103 148.39 10.2748 137.725 2.9927C137.266 2.67515 137.025 2.16113 137.025 1.6388Z" fill="#4E86BB"/>
<path d="M82.1041 30.6392C82.1041 30.6998 82.1041 30.7597 82.1041 30.8193C82.0386 33.7588 80.4213 35.9579 79.1975 37.3555C78.9352 37.6704 78.6511 37.9753 78.367 38.2773C77.3398 39.4077 76.4437 40.3844 76.1596 41.6992C75.7662 43.5704 76.6186 45.6868 78.214 46.8436C79.7875 47.9925 82.3227 47.8559 84.1148 46.5243C86.3877 44.8236 87.1089 42.2189 87.2838 40.3332C87.6771 36.5383 86.3439 32.2451 83.9835 29.6249C83.306 28.872 82.5194 28.2199 81.6453 27.6777C81.9512 28.697 82.1041 29.7318 82.1041 30.6392ZM56.6562 41.8972C56.6562 40.9607 56.6892 40.0131 56.7504 39.0543C57.3426 29.8881 65.2104 22.6331 74.6517 22.5385C79.2849 22.4941 83.5902 24.2783 86.4313 27.4353C89.4036 30.7503 91.0208 35.9493 90.54 40.6576C90.1903 44.303 88.6388 47.2405 86.0817 49.1519C83.1313 51.3418 79.0227 51.4861 76.2908 49.4944C73.6464 47.5769 72.2912 44.1758 72.9469 41.0341C73.4058 38.8331 74.761 37.3596 75.963 36.0604C76.2253 35.7811 76.4657 35.5011 76.7279 35.2109C78.1485 33.5752 78.7822 32.1973 78.8259 30.7459C78.8696 28.9881 77.9079 26.2016 76.3344 25.8969C75.8098 25.8379 75.2416 25.8115 74.6952 25.8167C66.9368 25.8934 60.5028 31.8013 60.0198 39.2661C59.3992 49.0717 62.2928 57.7198 68.4231 64.2618C74.8703 71.1239 84.3334 75.0613 94.3866 75.0613C106.319 75.0613 118.033 68.1085 124.24 57.3484C129.66 47.9396 130.469 35.6762 126.36 24.5463C121.814 12.2222 109.27 3.27874 96.5501 3.27874C95.6322 3.27874 94.911 2.54441 94.911 1.63961C94.911 0.734598 95.6322 0.000488281 96.5501 0.000488281C110.603 0.000488281 124.437 9.84704 129.442 23.4127C133.856 35.4438 132.982 48.7439 127.081 58.9867C120.306 70.7432 107.478 78.3395 94.3866 78.3395C83.4155 78.3395 73.0781 74.0258 66.0408 66.5037C59.8712 59.9276 56.6562 51.4673 56.6562 41.8972Z" fill="#4E86BB"/>
<path d="M172.321 118.356C171.774 117.482 171.119 116.695 170.376 116.018C167.753 113.664 163.448 112.335 159.667 112.713C157.787 112.899 155.187 113.603 153.482 115.885C152.149 117.672 152.018 120.212 153.154 121.792C154.312 123.381 156.432 124.222 158.29 123.835C159.623 123.562 160.585 122.664 161.721 121.626C162.027 121.348 162.333 121.071 162.639 120.798C164.038 119.587 166.245 117.97 169.174 117.904C170.135 117.882 171.228 118.029 172.321 118.356ZM121.661 105.606C121.661 92.5281 129.267 79.6979 141.003 72.9167C151.253 67.0074 164.562 66.129 176.582 70.5673C190.154 75.5675 199.989 89.4007 199.989 103.458C199.989 104.363 199.268 105.097 198.35 105.097C197.454 105.097 196.711 104.363 196.711 103.458C196.711 90.7251 187.772 78.186 175.446 73.6426C164.322 69.5386 152.061 70.3285 142.642 75.7555C131.889 81.9636 124.94 93.6799 124.94 105.606C124.94 115.675 128.873 125.14 135.736 131.574C142.271 137.707 150.925 140.614 160.738 139.98C168.19 139.497 174.113 133.056 174.178 125.315C174.2 124.74 174.157 124.192 174.091 123.645C173.785 122.083 171.031 121.143 169.261 121.182C167.797 121.213 166.42 121.86 164.781 123.278C164.497 123.527 164.213 123.785 163.95 124.039C162.639 125.234 161.175 126.589 158.968 127.044C155.82 127.695 152.433 126.357 150.51 123.72C148.521 120.979 148.652 116.861 150.838 113.924C152.761 111.361 155.689 109.813 159.339 109.45C164.06 108.981 169.239 110.6 172.561 113.579C175.73 116.416 177.457 120.664 177.457 125.348C177.369 134.796 170.113 142.659 160.956 143.251C150.204 143.944 140.719 140.734 133.507 133.965C125.967 126.915 121.661 116.577 121.661 105.606Z" fill="#4E86BB"/>
</svg>
