<svg width="220" height="275" viewBox="0 0 220 275" fill="none" xmlns="http://www.w3.org/2000/svg">
<path fill-rule="evenodd" clip-rule="evenodd" d="M116.55 14.3911C116.421 14.5195 111.786 14.7001 106.15 14.7966C103.783 14.8367 102.558 14.9541 101.817 15.2121C101.249 15.4102 100.245 15.5578 99.5858 15.5402C98.3197 15.5073 96.167 16.3727 95.6252 17.1328C94.957 18.0706 93.6788 18.272 92.1333 17.6832C91.3605 17.3885 90.7874 17.3336 89.6209 17.4423C88.7898 17.5197 87.516 17.5773 86.79 17.5696C85.3237 17.5542 83.7672 17.9444 81.62 18.8653C80.8335 19.2022 79.8644 19.6039 79.4662 19.757C79.068 19.9107 78.3954 20.4425 77.9708 20.9386C77.0165 22.0553 75.4397 23.1935 73.1764 24.3986C71.1508 25.478 67.5455 28.5973 66.5109 30.1662C66.1265 30.7496 65.5193 31.5349 65.1618 31.9119C64.8043 32.2889 64.267 32.9924 63.9672 33.4753C63.2681 34.6014 62.0741 35.7632 61.4575 35.9174C60.9774 36.0381 59.18 37.9759 59.18 38.3737C59.18 38.489 58.927 38.7485 58.6185 38.9505C58.3094 39.1524 57.4359 40.2752 56.677 41.4452C55.368 43.4636 54.0771 44.9996 53.6893 44.9996C53.592 44.9996 53.405 45.4194 53.2746 45.9326C53.1437 46.4457 52.5025 47.9027 51.8496 49.1703C51.1967 50.438 50.4867 52.0185 50.2717 52.6825C49.8349 54.0314 48.2163 57.9398 47.9528 58.28C47.8593 58.4007 47.6701 58.944 47.5315 59.4873C47.3935 60.0306 47.0431 61.0184 46.7533 61.6824C46.4634 62.3464 46.123 63.68 45.997 64.6458C45.8711 65.6117 45.568 67.0281 45.3238 67.7936C45.0796 68.5586 44.88 69.5041 44.88 69.8938C44.88 70.2839 44.7287 71.1109 44.5439 71.7322C43.5616 75.032 44.1639 81.2693 45.6753 83.4496C46.1466 84.129 46.2104 84.4029 46.0872 85.22C45.9761 85.9608 46.0752 86.5837 46.5113 87.8783C47.1762 89.8555 47.2472 91.6632 46.7285 93.4423C46.2885 94.9531 46.3804 95.6171 47.4815 98.8894C48.543 102.043 48.8884 105.144 48.6915 109.755C48.5716 112.552 48.5952 112.793 49.1045 114.036C49.445 114.865 49.6122 115.637 49.5577 116.121C49.5099 116.544 49.6259 117.478 49.8157 118.198L50.16 119.507L49.5786 119.969C48.7718 120.611 49.049 122.116 49.9945 122.226C50.369 122.27 50.836 122.611 51.271 123.159C51.6483 123.634 52.1257 124.023 52.3314 124.023C53.119 124.023 54.4093 126.177 54.3686 127.424C54.3482 128.045 54.4885 128.991 54.681 129.527C54.9411 130.25 55.0247 131.263 55.0072 133.487C54.9774 137.326 55.7596 138.184 57.7335 136.481L58.5601 135.767L58.8346 133.133C58.9858 131.684 59.3153 129.807 59.5672 128.962C59.8191 128.117 60.1942 126.487 60.4015 125.34C60.6089 124.194 60.9169 122.982 61.0869 122.648C61.2563 122.314 61.4845 121.178 61.5939 120.123C61.7034 119.069 61.9399 117.416 62.1197 116.45C62.3001 115.484 62.5609 113.262 62.7005 111.511C62.8397 109.761 63.102 107.884 63.2835 107.341C63.6394 106.274 64.2279 101.927 64.2356 100.309C64.2378 99.762 64.3946 98.7742 64.5837 98.114C65.3488 95.4426 65.8389 89.0916 65.7723 82.7203C65.7354 79.223 65.7596 78.9996 66.3223 77.5964C66.6457 76.7897 66.8827 75.8123 66.8492 75.4249C66.8118 74.9881 66.9603 74.4739 67.2408 74.0732C67.8221 73.2408 68.2 72.1207 68.2 71.2284C68.2 70.7669 68.392 70.3311 68.7539 69.97C69.0586 69.6666 69.8494 68.3319 70.5116 67.0056C71.1738 65.6786 71.8734 64.4625 72.066 64.3034C72.2585 64.1437 72.6985 63.455 73.0439 62.7728C73.3887 62.0907 73.9162 61.3718 74.2159 61.1765C74.5151 60.9805 75.031 60.5701 75.3621 60.2638C75.7136 59.939 76.2251 59.7068 76.5903 59.7068C76.967 59.7068 77.6182 59.4006 78.2249 58.9385C78.7798 58.516 79.3793 58.1703 79.5581 58.1703C79.7363 58.1703 80.1988 58.0056 80.586 57.8042C81.8934 57.1254 93.3768 56.975 96.47 57.5968C97.438 57.7916 98.6755 57.9513 99.22 57.9518C99.9509 57.9524 100.469 58.1242 101.2 58.6093C102.322 59.354 103.783 59.821 105.71 60.0515C106.436 60.1382 107.228 60.3379 107.47 60.4954C107.712 60.6529 108.603 60.8472 109.45 60.9279C110.297 61.008 111.278 61.2105 111.629 61.3779C112.899 61.9832 114.623 61.4037 116.187 59.8457C116.861 59.1751 117.161 59.0203 117.619 59.1076C118.738 59.321 120.099 58.4918 120.257 57.4991C120.437 56.3769 121.065 56.1749 122.331 56.8329L123.226 57.2988L125.248 56.6156C126.521 56.1853 127.8 55.9131 128.7 55.8802C129.487 55.8517 130.391 55.7545 130.71 55.6646C131.171 55.5345 131.397 55.6141 131.81 56.052C132.255 56.5239 132.583 56.6211 134.09 56.7253C138.291 57.0173 139.39 57.2373 140.089 57.9272C140.486 58.3184 141.139 58.6181 142.01 58.8079C142.736 58.9665 143.768 59.2332 144.304 59.4012C144.84 59.5696 145.452 59.7068 145.664 59.7068C145.875 59.7068 146.724 60.4603 147.549 61.3817C148.375 62.3025 149.471 63.4539 149.985 63.9395C150.499 64.4258 150.92 64.9312 150.92 65.064C150.921 65.1962 151.171 65.5947 151.477 65.9492C151.782 66.3042 152.088 66.8475 152.156 67.1565C152.412 68.3122 152.507 68.5081 153.314 69.5283C154.429 70.9397 154.966 72.6601 155.558 76.7189C155.699 77.6847 155.996 79.0676 156.219 79.792C157.24 83.1204 157.627 87.8964 157.639 97.3529C157.65 105.646 157.644 105.58 158.842 111.841C159.073 113.048 159.37 115.122 159.503 116.45C159.635 117.778 159.931 119.655 160.159 120.621C160.388 121.587 160.684 123.217 160.817 124.243C160.95 125.269 161.246 126.701 161.475 127.426C161.704 128.15 162.009 129.827 162.152 131.151C162.507 134.425 163.066 135.168 164.39 134.129C164.842 133.774 164.958 133.454 165.05 132.312C165.112 131.539 165.367 130.524 165.625 130.019C165.88 129.52 166.15 128.684 166.226 128.16C166.367 127.18 167.122 124.542 167.383 124.111C167.999 123.098 169.755 121.183 170.161 121.082C171.274 120.803 171.942 115.534 171.056 114.026C170.548 113.16 170.491 112.913 170.696 112.464C170.83 112.17 170.941 111.169 170.941 110.239C170.942 106.934 172.335 102.039 174.643 97.2267C175.841 94.7286 175.997 93.9845 176.442 88.618C176.56 87.1939 176.817 85.541 177.013 84.9439C177.3 84.0697 177.339 83.3766 177.217 81.3862C177.001 77.8653 176.994 76.1756 177.192 75.2751C177.322 74.6846 177.258 74.2483 176.932 73.519C176.694 72.985 176.235 71.4122 175.914 70.0238C175.593 68.6354 175.24 67.1537 175.13 66.7312C175.02 66.3086 174.867 65.3702 174.788 64.6458C174.71 63.9214 174.506 62.8842 174.335 62.341C174.164 61.7977 173.976 60.8829 173.918 60.3077C173.86 59.7326 173.524 58.5967 173.171 57.7834C172.818 56.9701 172.369 55.7452 172.174 55.0609C171.978 54.3771 171.448 53.3372 170.994 52.75C170.541 52.1623 169.927 51.3391 169.63 50.9198C169.333 50.5011 169.01 50.0594 168.913 49.9386C168.114 48.947 166.233 45.8903 165.561 44.4926C165.107 43.5498 164.357 42.3919 163.893 41.9194C163.429 41.4474 162.729 40.5891 162.336 40.0124C160.408 37.1796 156.708 32.9573 155.662 32.3981C155.232 32.1676 154.88 31.8982 154.88 31.7988C154.88 31.6995 154.509 31.429 154.055 31.1974C153.601 30.9658 152.705 30.2809 152.062 29.6751C151.162 28.8267 150.633 28.515 149.752 28.3152C149.124 28.1725 148.342 27.8679 148.014 27.638C147.686 27.4075 147.341 27.2193 147.246 27.2193C147.151 27.2193 146.528 26.8587 145.862 26.4181C143.063 24.5676 142.385 24.1456 141.13 23.4739C140.404 23.0854 139.662 22.6524 139.48 22.5113C139.299 22.3709 138.16 21.7743 136.95 21.1866C135.74 20.5989 134.552 19.9513 134.31 19.7472C133.764 19.2873 131.127 18.288 129.8 18.0388C128.883 17.866 124.911 16.3881 124.41 16.0336C124.289 15.9474 123.448 15.6566 122.54 15.386C121.633 15.116 120.517 14.7538 120.061 14.5815C119.254 14.277 116.798 14.1436 116.55 14.3911ZM132 109.212C126.455 110.715 122.478 112.398 121.542 113.636C121.194 114.097 120.65 114.722 120.333 115.023C119.027 116.269 118.532 120.856 119.547 122.302C119.859 122.746 119.864 122.745 120.221 122.203C120.792 121.333 121.574 121.317 122.417 122.159C122.868 122.61 123.597 123.01 124.376 123.236C125.162 123.464 125.74 123.782 125.952 124.105C126.737 125.3 127.465 125.226 129.03 123.791C130.928 122.051 134.165 121.273 138.403 121.537C140.771 121.686 140.814 121.664 141.012 120.182C141.137 119.25 141.696 118.936 142.463 119.364C142.788 119.545 142.789 119.593 142.47 119.911C141.755 120.624 142.525 121.401 144.378 121.838C145.011 121.988 145.987 122.346 146.545 122.636C147.568 123.164 148.171 123.155 150.075 122.58C151.102 122.27 149.113 118.097 147.938 118.097C147.793 118.097 147.54 117.936 147.376 117.739C147.089 117.394 144.455 116.102 143.402 115.79C141.72 115.291 140.915 114.216 141.625 113.417C141.956 113.045 141.964 112.968 141.68 112.876C141.335 112.763 139.251 110.654 138.486 109.643C137.669 108.564 135.035 108.389 132 109.212ZM86.1943 110.191C85.6774 110.347 84.3662 111.144 84.04 111.501C83.7738 111.792 82.5055 112.39 82.1359 112.399C81.5034 112.414 80.0943 112.967 79.6378 113.379C78.8172 114.12 79.5361 114.608 81.95 114.948C83.4229 115.155 83.5917 115.404 82.3812 115.584C81.6645 115.691 80.965 115.995 80.3429 116.468C79.8215 116.865 79.079 117.258 78.6929 117.343C77.7079 117.558 75.96 118.587 74.855 119.602C72.4103 121.847 74.6284 124.293 77.5566 122.581C78.6753 121.927 80.4766 121.588 83.2711 121.506C84.3601 121.474 85.5976 121.362 86.0211 121.258C86.4441 121.154 87.78 121.067 88.99 121.064L91.19 121.06V119.821C91.19 117.585 92.405 116.991 93.8091 118.542C94.4422 119.241 94.5632 119.504 94.3883 119.804C93.9263 120.595 93.5638 120.926 93.0072 121.065C92.5232 121.187 92.0254 121.752 92.23 121.949C93.0793 122.768 95.0131 123.143 97.1856 122.91C98.444 122.774 99.6644 122.713 99.8971 122.774C100.13 122.835 100.658 122.782 101.071 122.655C102.877 122.102 102.807 123.769 100.945 125.646C100.36 126.237 99.88 126.896 99.88 127.112C99.88 127.577 101.358 128.853 101.898 128.853C102.291 128.853 104.28 126.59 104.28 126.143C104.28 126.003 104.563 125.292 104.909 124.563C105.849 122.581 105.976 120.01 105.223 118.206C104.921 117.482 104.529 116.536 104.351 116.105C104.121 115.545 103.811 115.241 103.275 115.048C102.579 114.797 101.42 113.602 101.42 113.136C101.42 111.255 90.002 109.046 86.1943 110.191ZM131.224 118.012C131.86 118.646 131.606 121.216 130.882 121.469C130.12 121.736 129.192 121.276 128.54 120.309L128.033 119.559L128.532 119.018C129.652 117.802 130.643 117.432 131.224 118.012ZM136.62 117.877C136.62 117.998 136.472 118.097 136.29 118.097C136.109 118.097 135.96 117.998 135.96 117.877C135.96 117.756 136.109 117.658 136.29 117.658C136.472 117.658 136.62 117.756 136.62 117.877ZM120.395 123.832C119.554 124.685 122.203 128.093 123.583 127.935C124.832 127.791 123.516 125.121 122.196 125.121C122.108 125.121 121.729 124.768 121.353 124.337C120.803 123.706 120.617 123.608 120.395 123.832ZM54.2657 141.393C53.8923 142.785 54.1882 144.657 54.7816 144.657C55.5615 144.657 55.5153 142.847 54.698 141.393L54.4054 140.871L54.2657 141.393ZM119.79 148.536C119.427 148.728 118.712 149.222 118.201 149.634C114.653 152.498 110.929 152.592 107.177 149.911C105.014 148.365 103.141 148.038 102.047 149.013L101.347 149.637L101.828 150.629C102.211 151.418 102.561 151.751 103.55 152.268C105.483 153.279 105.543 153.877 103.709 153.877C102.918 153.877 102.076 153.773 101.837 153.645C101.215 153.313 100.473 153.596 100.608 154.114C100.747 154.645 99.4911 156.308 98.4803 156.931C98.0661 157.186 97.4639 157.74 97.1421 158.161C96.0982 159.526 94.7144 159.878 92.4413 159.355C91.712 159.187 91.2654 159.214 90.5086 159.47C89.9674 159.654 89.1935 159.804 88.7893 159.804C87.8696 159.804 87.6299 160.103 87.5919 161.298C87.5754 161.818 87.4665 162.421 87.3494 162.64C86.9842 163.32 84.1104 163.574 83.5137 162.978C82.1508 161.619 78.8414 161.853 79.755 163.245C79.9783 163.585 80.0839 164.069 80.0234 164.479C79.9656 164.872 80.1257 165.665 80.4084 166.385C80.7274 167.198 80.8341 167.776 80.7202 168.082C80.5134 168.639 83.4713 171.877 84.188 171.877C84.4184 171.877 84.969 172.061 85.4112 172.285C85.9111 172.54 86.5585 172.671 87.1233 172.63C87.7877 172.583 88.1447 172.68 88.4554 172.99C88.7788 173.312 88.8041 173.413 88.5599 173.413C88.3597 173.413 88.1914 173.722 88.11 174.236C88.0385 174.689 87.9274 175.307 87.8625 175.608C87.3472 178.009 87.5243 178.354 89.2606 178.331C90.3711 178.316 90.6895 178.206 91.6756 177.499L92.8114 176.685L94.0539 177.046C94.7375 177.244 95.4806 177.358 95.7055 177.3C95.9304 177.241 96.5712 177.29 97.13 177.409C97.8995 177.572 98.5028 177.542 99.6177 177.285C100.427 177.098 101.511 176.882 102.025 176.806C102.539 176.729 102.96 176.581 102.96 176.475C102.96 175.879 104.361 174.73 105.087 174.73C105.506 174.73 106.065 174.613 106.329 174.47C106.933 174.142 107.004 174.133 110.963 173.865C112.763 173.744 114.426 173.584 114.66 173.51C115.201 173.339 120.78 174.068 120.78 174.31C120.78 175.192 123.898 175.929 128.59 176.156C132.596 176.35 133.259 176.463 133.995 177.081C134.574 177.567 134.773 177.614 135.691 177.471C136.262 177.383 137.195 177.294 137.763 177.273C138.382 177.25 138.962 177.085 139.211 176.861C139.708 176.412 140.112 176.396 140.653 176.805C140.961 177.038 141.21 177.056 141.716 176.88C142.382 176.648 143.601 175.608 143.206 175.608C142.204 175.608 142.178 172.775 143.175 172.173C143.502 171.975 144.038 171.63 144.366 171.406C144.694 171.182 145.113 170.999 145.296 170.999C145.479 170.999 145.804 170.727 146.017 170.395C146.23 170.063 146.537 169.688 146.7 169.562C146.862 169.436 147.012 168.991 147.033 168.574C147.078 167.646 146.45 167.44 145.7 168.136C145.084 168.709 143.984 168.712 143.049 168.144C142.653 167.903 142.134 167.706 141.895 167.706C140.969 167.706 140.58 166.956 140.58 165.176C140.58 163.275 140.391 163.096 138.382 163.096C137.683 163.096 137.186 162.971 136.95 162.736C136.751 162.538 136.225 162.25 135.78 162.096C134.932 161.804 134.958 161.87 134.879 159.874C134.836 158.798 133.861 158.524 132.55 159.22C132.03 159.495 131.132 159.659 131.45 159.42C131.571 159.329 131.691 159.057 131.718 158.816C131.745 158.574 131.83 158.056 131.908 157.663C132.037 157.016 132.001 156.95 131.517 156.95C130.447 156.95 130.16 156.497 130.294 155.02C130.414 153.698 130.409 153.681 129.806 153.549C128.986 153.369 127.994 153.638 127.64 154.135C127.248 154.686 126.051 154.071 126.224 153.408C126.383 152.8 125.736 151.974 124.881 151.692C124.122 151.442 123.869 151.012 123.863 149.963C123.855 148.499 121.452 147.658 119.79 148.536ZM121.624 152.252C122.774 153.056 121.47 154.874 120.138 154.324C119.168 153.922 118.42 154.187 118.055 155.059C117.885 155.463 117.365 156.078 116.898 156.426C116.432 156.773 116.001 157.117 115.94 157.19C115.661 157.528 114.8 157.828 114.112 157.828C113.696 157.828 112.952 157.97 112.46 158.143C111.45 158.499 110.714 158.092 109.183 156.335C107.753 154.693 108.275 154.151 111.481 153.951C112.663 153.877 113.749 153.723 113.895 153.609C114.04 153.494 115.129 153.173 116.315 152.894C117.5 152.616 118.718 152.284 119.02 152.159C119.846 151.814 121.059 151.857 121.624 152.252ZM112.952 160.156C113.43 160.339 113.389 160.959 112.879 161.278C112.428 161.559 112.187 161.399 111.917 160.641C111.742 160.153 112.283 159.9 112.952 160.156ZM111.863 164.013C111.682 164.946 115.502 165.938 119.302 165.945C122.285 165.95 123.096 166.178 125.063 167.564C125.923 168.169 126.301 168.205 126.753 167.721C127.599 166.815 128.489 167.516 128.028 168.724C127.828 169.25 127.865 169.384 128.298 169.71L128.799 170.087L128.203 170.237C127.874 170.319 126.946 170.271 126.14 170.132C125.333 169.991 123.773 169.892 122.672 169.911C121.571 169.93 120.422 169.849 120.12 169.731C119.115 169.341 118.125 169.201 117.856 169.412C117.71 169.526 116.897 169.791 116.05 170C115.203 170.211 114.148 170.532 113.706 170.714C113.156 170.942 112.566 171.002 111.836 170.908C108.101 170.423 105.469 170.495 104.542 171.107C103.563 171.753 103.209 171.748 101.035 171.056C99.7431 170.645 99.3179 170.716 96.8286 171.764C94.8668 172.59 94.473 172.632 94.0698 172.058C93.5286 171.287 93.4004 171.38 98.6051 168.776C100.963 167.596 101.831 167.267 102.588 167.267C103.217 167.267 103.931 167.063 104.632 166.684C105.529 166.2 106.098 166.079 108.02 165.966C111.127 165.783 111.651 165.502 111.577 164.054C111.541 163.323 111.59 163.085 111.732 163.297C111.847 163.468 111.906 163.79 111.863 164.013ZM92.62 172.541C92.62 172.665 92.323 172.825 91.96 172.897C91.597 172.97 91.2967 173.14 91.2929 173.276C91.289 173.412 91.1438 173.335 90.97 173.106C90.7962 172.878 90.706 172.606 90.7698 172.503C90.9354 172.236 92.62 172.27 92.62 172.541ZM107.69 180.573C107.085 180.752 106.059 181.035 105.411 181.203C103.859 181.603 101.766 183.608 101.986 184.484C102.061 184.782 101.961 185.51 101.764 186.102C101.487 186.934 101.46 187.318 101.642 187.797C101.772 188.138 101.859 189.017 101.835 189.75C101.742 192.653 102.232 193.846 103.793 194.513C105.674 195.318 105.975 197.711 104.385 199.218C104.123 199.467 103.727 200.158 103.505 200.755C102.869 202.459 101.945 203.613 100.896 204.014C99.9092 204.389 97.784 204.49 97.586 204.17C97.218 203.577 95.4404 203.674 94.0489 204.365L92.6552 205.056L91.8126 204.601C91.349 204.35 90.5619 204.046 90.0636 203.925C88.7535 203.606 88.0649 202.982 87.8917 201.958C87.7404 201.065 87.2883 200.717 86.6151 200.975C86.1663 201.147 85.365 199.551 85.3474 198.451C85.3116 196.19 84.859 195.874 81.5898 195.829L79.6901 195.803L79.5905 195.127C79.5141 194.607 79.602 194.378 79.9689 194.137C80.2318 193.965 80.5745 193.587 80.7301 193.297C80.916 192.95 81.2878 192.719 81.8119 192.623C83.5098 192.311 84.6098 190.334 83.105 190.299C82.7118 190.29 82.2184 190.249 82.0083 190.209C81.4715 190.106 79.4618 191.147 79.3364 191.593C79.2792 191.796 79.1681 192.373 79.09 192.875C78.9228 193.952 78.5285 194.126 76.7311 193.918C75.0558 193.725 74.6795 194.19 74.4771 196.706C74.3435 198.372 74.3705 198.614 74.701 198.74C75.0101 198.859 75.0525 199.067 74.9419 199.923C74.8677 200.494 74.772 201.505 74.7291 202.169C74.6862 202.833 74.497 203.673 74.3089 204.035C74.1202 204.397 73.8546 205.107 73.7182 205.613C73.5603 206.198 73.3123 206.583 73.0351 206.671C72.7958 206.746 72.6 206.901 72.6 207.013C72.6 207.524 72.1787 207.145 72.0385 206.508C71.8184 205.507 71.39 204.932 70.515 204.461L69.7576 204.054L68.3705 205.033C65.9351 206.749 62.1918 211.652 61.6732 213.803C61.6005 214.105 61.4158 214.5 61.2623 214.681C60.9653 215.033 60.2674 217.51 59.7339 220.109C59.5551 220.981 59.2102 222.281 58.9682 222.998C58.7262 223.715 58.4617 224.877 58.3803 225.583C58.2989 226.287 58.0492 227.398 57.8259 228.051C57.6026 228.704 57.42 229.563 57.42 229.961C57.42 230.385 57.2792 230.762 57.0795 230.874C56.7451 231.061 56.1231 233.176 56.1077 234.178C56.1016 234.581 56.2023 234.673 56.5895 234.617C57.2192 234.527 57.6328 233.697 57.6367 232.516C57.6405 231.369 58.129 231.262 59.0375 232.208C59.5672 232.76 59.5974 232.865 59.2988 233.113C57.8545 234.309 59.9858 236.896 61.4609 235.738C62.6769 234.783 63.0613 235.557 62.8672 238.568C62.7809 239.916 62.8265 240.298 63.0977 240.496C63.5316 240.812 64.0123 242.414 64.0167 243.555C64.0183 244.043 64.2224 244.833 64.4699 245.311C64.7169 245.79 65.0573 246.89 65.2261 247.757C65.395 248.624 65.6876 249.632 65.8762 249.997C66.4939 251.187 66.3581 255.238 65.67 256.169C65.3675 256.577 65.12 257.031 65.12 257.175C65.12 258.604 63.4122 258.426 62.9227 256.946C62.7913 256.547 62.4756 256.037 62.2215 255.811C61.6297 255.285 61.16 254.177 61.16 253.306C61.16 252.931 60.9229 252.212 60.6325 251.708C59.6123 249.933 58.9275 247.465 58.8616 245.323C58.7857 242.856 58.7136 242.686 57.5977 242.353C56.43 242.004 56.0389 242.429 56.8991 243.113C57.5053 243.596 57.5652 243.987 57.3067 245.78C57.1692 246.732 57.057 246.938 56.6109 247.049C55.8954 247.229 55.6435 247.033 55.8547 246.462C55.9515 246.201 55.9334 245.686 55.8151 245.317C55.6969 244.947 55.4692 244.249 55.3097 243.766C55.1254 243.209 55.066 242.402 55.1463 241.559C55.2513 240.459 55.2046 240.16 54.8768 239.833C54.3972 239.355 53.9 239.822 53.9 240.75C53.9 241.491 53.5166 242.116 52.5167 243.004C51.4794 243.924 51.2237 245.297 51.7115 247.326L52.003 248.539L51.2671 249.139L50.5307 249.738L50.6627 251.307C50.8057 253.014 50.7573 253.1 50.0351 252.423C49.577 251.994 49.5099 251.988 48.7294 252.313C48.2768 252.502 47.7449 252.657 47.548 252.658C47.3511 252.659 46.9425 252.786 46.64 252.941C46.3375 253.096 45.6445 253.391 45.1 253.598C44.424 253.854 43.9395 254.234 43.5732 254.796C43.2778 255.249 42.7663 255.916 42.4363 256.278C42.1063 256.641 41.6878 257.283 41.5063 257.705L41.1757 258.474L41.1581 257.041C41.146 256.081 41.2516 255.449 41.4788 255.125C41.6658 254.859 41.9562 254.22 42.1256 253.704C42.2945 253.188 42.625 252.22 42.8593 251.552C43.0936 250.884 43.3576 249.699 43.4456 248.918C43.5457 248.03 43.7563 247.333 44.0082 247.059C44.5291 246.491 44.88 245.554 44.88 244.731C44.88 244.372 45.0829 243.804 45.331 243.469C45.5801 243.133 45.8656 242.269 45.9695 241.536C46.073 240.807 46.365 239.805 46.6186 239.308C47.3644 237.849 46.8094 236.694 45.8634 237.737C45.4118 238.235 45.3343 238.247 44.5407 237.945C44.0522 237.76 43.9983 237.667 44.2233 237.397C44.3718 237.218 44.4235 237.071 44.3371 237.071C44.2513 237.071 44.4411 236.762 44.7595 236.385C45.078 236.008 45.2997 235.588 45.2523 235.452C45.1165 235.062 43.1975 235.177 42.724 235.604C42.4974 235.81 41.4458 236.166 40.3876 236.397C39.3299 236.627 38.2987 236.964 38.0968 237.145C37.895 237.325 37.356 237.542 36.899 237.627C35.9876 237.796 35.4497 238.444 35.8358 238.907C36.1575 239.295 35.9051 240.127 35.1857 241.048C34.7946 241.55 34.6082 242.004 34.6808 242.281C34.8804 243.042 33.7948 243.681 32.3527 243.653C29.6467 243.598 25.2654 244.335 26.8725 244.574C27.7723 244.708 27.8751 245.277 27.291 246.893C26.8796 248.033 26.7168 249.061 26.587 251.339C26.4946 252.969 26.3214 254.797 26.2025 255.4C25.8253 257.315 25.9116 259.761 26.4 260.998C26.642 261.61 26.84 262.598 26.84 263.191C26.84 263.963 26.9874 264.488 27.3576 265.032C28.0489 266.048 28.2101 267.634 28.0258 271.589L27.8745 274.827H30.1076C31.8571 274.827 32.34 274.762 32.34 274.525C32.34 274.358 32.4885 274.099 32.67 273.949C32.8515 273.799 33 273.447 33 273.167C33 272.887 33.099 272.597 33.22 272.522C33.341 272.448 33.5511 271.948 33.6864 271.411C33.9906 270.205 34.0901 270.205 35.3755 271.404L36.4122 272.372L36.9303 271.953C37.2158 271.723 37.6189 271.534 37.8273 271.534C38.0352 271.534 38.3322 271.298 38.4868 271.01C38.9812 270.088 39.82 269.869 39.82 270.661C39.82 271.036 39.7023 271.317 39.545 271.319C39.3938 271.322 38.7007 271.865 38.0044 272.527C37.3087 273.188 36.5876 273.729 36.4028 273.729C35.8617 273.729 34.54 274.345 34.54 274.597C34.54 274.757 50.2216 274.827 86.1575 274.827H137.775L137.653 274.22C137.572 273.811 137.669 273.433 137.951 273.067C138.181 272.767 138.372 272.4 138.375 272.251C138.378 272.101 138.702 271.836 139.095 271.66C140.027 271.244 141.02 270.331 141.02 269.891C141.02 269.7 141.366 269.34 141.789 269.091C142.278 268.804 142.715 268.286 142.987 267.672C143.33 266.898 143.526 266.705 143.97 266.705C145.281 266.705 145.423 269.288 144.186 270.654C143.477 271.436 143.407 271.621 143.535 272.356C143.614 272.81 143.672 273.551 143.664 274.004L143.65 274.827H146.607H149.566L149.803 274.114C150.08 273.287 151.317 272.358 152.06 272.419C153.116 272.506 153.356 272.393 153.716 271.64C154.024 270.996 154.042 270.747 153.823 270.143C153.473 269.177 153.491 268.77 153.916 268.124C154.111 267.826 154.408 266.866 154.574 265.991C154.89 264.334 155.237 263.852 156.114 263.852C156.392 263.852 156.798 263.591 157.055 263.248L157.506 262.644L157.513 263.703C157.517 264.348 157.394 264.887 157.197 265.083C156.981 265.299 156.885 265.81 156.907 266.633C156.94 267.877 156.595 268.461 155.828 268.461C155.653 268.461 155.54 268.726 155.54 269.134C155.54 269.885 155.189 270.676 154.738 270.942C154.574 271.038 154.44 271.304 154.44 271.534C154.44 271.763 154.192 272.415 153.89 272.982C152.818 274.993 151.903 274.827 164.025 274.827H174.71L174.555 274.333C174.47 274.061 174.319 273.787 174.219 273.722C174.119 273.657 173.886 273.244 173.702 272.804C173.517 272.364 173.266 271.942 173.143 271.866C173.021 271.79 172.927 271.264 172.935 270.698L172.951 269.669L173.35 270.547C173.569 271.029 174.057 271.715 174.434 272.069C174.811 272.424 175.12 272.828 175.12 272.968C175.12 273.705 175.963 274.03 176.91 273.659C177.979 273.24 178.1 273.284 178.276 274.164L178.409 274.827H182.554H186.699L187.069 274.051C187.273 273.625 187.44 273.137 187.44 272.969C187.44 272.8 187.713 272.468 188.046 272.231C188.871 271.645 190.08 269.171 190.08 268.068C190.08 267.525 190.217 267.085 190.445 266.897C191.086 266.367 191.614 264.909 191.478 264.045C191.407 263.593 191.469 263.035 191.622 262.75C192.45 261.207 192.643 254.743 191.899 253.473C191.344 252.525 190.851 252.463 190.557 253.304C190.284 254.084 189.42 254.27 189.42 253.548C189.42 253.313 189.321 253.06 189.2 252.986C188.304 252.433 189.157 250.681 190.323 250.681C191.035 250.681 191.167 250.596 191.374 250.003C191.504 249.63 191.811 249.273 192.055 249.209C192.982 248.968 192.654 247.592 191.389 246.411C190.142 245.247 189.562 245.306 189.124 246.639C188.88 247.381 188.615 247.6 187.953 247.604C187.687 247.606 187.15 247.963 186.743 248.408C186.34 248.847 185.837 249.391 185.625 249.615C185.392 249.861 184.935 250.022 184.47 250.022C183.875 250.022 183.7 250.112 183.7 250.417C183.7 250.634 183.304 251.197 182.82 251.669C182.145 252.326 181.94 252.695 181.94 253.25C181.94 253.931 181.894 253.974 181.17 253.974H180.4V256.059V258.144H179.41C178.496 258.144 178.42 258.187 178.42 258.702C178.42 259.691 179.261 260.559 180.221 260.559H181.06V259.352C181.06 258.291 181.113 258.144 181.5 258.144C181.793 258.144 181.94 257.998 181.94 257.705C181.94 257.413 182.087 257.266 182.38 257.266C182.767 257.266 182.82 257.12 182.82 256.059V254.852H183.59C184.213 254.852 184.36 254.768 184.36 254.413C184.36 254.12 184.507 253.974 184.8 253.974C185.081 253.974 185.24 253.827 185.24 253.569C185.24 253.079 185.905 252.437 186.412 252.437C186.633 252.437 186.78 252.262 186.78 251.998C186.78 251.705 186.927 251.559 187.22 251.559C187.62 251.559 187.66 251.705 187.66 253.171C187.66 254.505 187.736 254.852 188.1 255.181C188.736 255.755 188.752 258.144 188.119 258.144C187.801 258.144 187.663 258.354 187.553 259.005C187.473 259.478 187.285 259.913 187.135 259.97C186.986 260.027 186.749 260.455 186.609 260.921C186.469 261.386 185.956 262.207 185.468 262.746C184.979 263.284 184.58 263.906 184.58 264.128C184.58 266.341 181.194 268.186 179.85 266.705C179.603 266.433 179.172 266.266 178.716 266.266C178.208 266.266 177.98 266.164 177.98 265.937C177.98 265.751 177.764 265.593 177.485 265.575C177.213 265.557 177.436 265.482 177.98 265.41C179.048 265.268 179.121 265.093 178.74 263.577C178.611 263.061 178.656 262.973 179.054 262.973C179.442 262.973 179.52 262.842 179.52 262.187C179.52 261.754 179.446 261.436 179.355 261.481C178.229 262.028 177.98 262.225 177.98 262.57C177.98 263.651 176.886 262.933 176.422 261.547C175.904 259.997 175.272 259.695 174.355 260.554C173.832 261.045 174.076 261.199 172.194 259.187C171.77 258.734 171.281 258.364 171.106 258.364C170.931 258.364 170.609 258.166 170.39 257.925C170.171 257.683 169.872 257.486 169.726 257.486C169.579 257.486 169.223 257.305 168.935 257.083C168.552 256.789 168.021 256.677 166.968 256.672C166.072 256.666 165.26 256.526 164.823 256.301C164.16 255.958 163.876 255.51 164.323 255.51C164.435 255.51 164.836 255.251 165.214 254.933C166.119 254.173 167.144 254.392 167.64 255.454C167.98 256.18 168.3 256.388 168.3 255.882C168.3 255.724 168.547 255.26 168.85 254.852C169.662 253.754 169.596 253.229 168.67 253.403C167.974 253.533 167.929 253.501 167.735 252.736C167.447 251.606 166.925 251.328 166.261 251.95C165.876 252.311 165.472 252.437 164.705 252.437C163.803 252.437 163.642 252.508 163.46 252.986C163.19 253.693 162.8 253.693 162.8 252.986C162.8 252.68 163.288 251.756 163.908 250.889C165.328 248.904 165.521 248.122 164.64 247.933C163.444 247.675 163.033 247.406 162.9 246.792C162.708 245.903 162.115 244.568 161.795 244.303C161.643 244.177 161.453 243.56 161.373 242.932C161.294 242.304 161.038 241.222 160.804 240.527C160.571 239.833 160.38 238.911 160.38 238.479C160.38 237.898 160.168 237.435 159.56 236.696L158.74 235.698L158.681 232.713C158.583 227.874 158.102 225.487 156.714 222.95C156.081 221.793 155.709 217.995 156.09 216.583C156.396 215.453 154.007 208.29 152.984 207.27C152.816 207.103 152.674 206.801 152.666 206.598C152.641 205.928 152.255 207.173 152.012 208.713C151.848 209.747 151.626 210.335 151.263 210.702L150.746 211.223L150.396 210.69C149.859 209.873 149.161 207.68 149.157 206.799C149.155 206.366 149.008 205.418 148.829 204.693C148.334 202.681 148.155 198.068 148.5 196.243C148.879 194.237 147.989 192.088 147.18 193.059C146.751 193.575 146.236 193.452 145.32 192.616C144.696 192.046 144.354 191.88 144.013 191.985C143.358 192.185 143.367 192.164 143.262 193.609C143.173 194.837 143.105 194.974 142.149 195.847C141.589 196.358 140.95 197.065 140.729 197.419C140.509 197.773 140.171 198.218 139.979 198.409C139.787 198.601 139.454 199.155 139.237 199.64C139.02 200.125 138.238 201.115 137.499 201.84C136.76 202.564 135.954 203.479 135.708 203.873C134.766 205.381 131.597 204.876 130.154 202.988C129.85 202.59 129.225 202.132 128.765 201.97C128.306 201.809 127.76 201.528 127.553 201.346C127.128 200.976 127.003 201.173 126.515 202.986C126.16 204.308 125.192 204.996 123.75 204.954C122.659 204.921 122.636 204.934 120.932 206.618C119.987 207.551 119.112 208.315 118.986 208.315C118.56 208.315 117.48 206.956 117.48 206.419C117.48 206.069 117.311 205.823 116.985 205.7C116.283 205.435 116.2 205.552 116.322 206.633C116.439 207.674 116.177 207.954 115.301 207.726C114.736 207.578 114.664 206.539 115.189 206.105C115.532 205.82 115.53 205.706 115.144 203.92C114.913 202.847 116.538 202.002 117.038 202.935C117.431 203.667 118.209 203.662 118.545 202.926C118.862 202.233 118.633 197.322 118.272 197.045C118.128 196.934 118.197 196.914 118.443 196.994C119.013 197.179 119.46 196.747 119.46 196.012C119.46 195.416 118.977 194.706 118.571 194.706C118.155 194.706 118.634 194.13 119.577 193.498C120.329 192.994 120.559 192.703 120.559 192.254C120.56 191.886 120.762 191.52 121.107 191.267C121.448 191.016 121.694 190.575 121.761 190.096C121.878 189.257 122.369 187.779 122.609 187.539C123.003 187.146 122.668 186.293 121.661 185.12C121.056 184.416 120.607 183.716 120.664 183.566C121.157 182.245 117.266 180.928 113.705 181.209C111.784 181.36 111.734 181.352 111.213 180.791C110.587 180.117 109.467 180.047 107.69 180.573ZM149.524 215.724C149.702 216.618 149.702 216.605 149.499 217.809C149.36 218.63 149.101 218.797 148.527 218.434C148.019 218.113 148.403 214.901 148.949 214.901C149.248 214.901 149.405 215.125 149.524 215.724ZM151.103 222.961C151.193 224.374 151.032 224.612 150.298 224.149C149.931 223.916 149.72 222.416 149.911 221.399L150.057 220.625L150.536 221.103C150.9 221.466 151.037 221.913 151.103 222.961ZM165.086 225.53C164.806 226.258 165.17 227.722 165.746 228.18C166.056 228.427 166.547 229.279 166.866 230.124C167.178 230.951 167.677 232.086 167.977 232.646C168.275 233.207 168.52 233.776 168.52 233.911C168.52 234.046 168.825 234.54 169.198 235.008C169.91 235.902 169.935 236.205 169.5 238.643C169.38 239.314 169.431 239.487 169.809 239.688C170.444 240.028 170.737 241.311 170.575 243.05C170.443 244.464 170.459 244.535 170.909 244.535C171.33 244.535 171.38 244.655 171.38 245.67C171.38 246.434 171.503 246.941 171.757 247.221C172.017 247.507 172.121 247.952 172.09 248.654C172.032 249.99 172.627 250.681 173.839 250.681C174.533 250.681 174.68 250.757 174.68 251.12C174.68 251.412 174.533 251.559 174.24 251.559C173.996 251.559 173.8 251.412 173.8 251.23C173.8 251.047 173.604 250.9 173.36 250.9C173.118 250.9 172.92 250.932 172.92 250.97C172.92 251.008 172.825 251.576 172.708 252.232C172.338 254.321 172.661 255.747 173.58 256.078C175.205 256.662 175.34 256.571 175.34 254.893C175.34 253.23 175.793 252.437 176.745 252.437C177.699 252.437 177.979 251.816 177.99 249.676C177.995 248.548 178.134 247.345 178.317 246.839C178.724 245.71 178.722 245.095 178.31 244.754C178.128 244.604 177.98 244.246 177.98 243.959C177.98 243.596 177.855 243.437 177.569 243.437C177.082 243.437 176.698 240.433 177.061 239.475C177.174 239.179 177.328 238.344 177.405 237.62L177.545 236.303L176.468 235.103C175.523 234.049 175.347 233.938 175.031 234.2C174.4 234.722 173.63 233.859 174.23 233.302C174.809 232.763 174.636 232.422 173.519 231.905C172.657 231.504 172.575 231.391 172.385 230.321C172.158 229.05 171.43 228.694 170.937 229.614C170.612 230.22 170.38 230.015 170.089 228.861C169.87 227.996 169.672 227.774 168.318 226.876C167.479 226.319 166.761 225.77 166.722 225.656C166.578 225.237 165.238 225.135 165.086 225.53ZM156.752 234.588C156.594 235.192 156.585 235.195 156.368 234.725C156.245 234.461 156.218 233.967 156.308 233.628C156.466 233.024 156.475 233.021 156.692 233.49C156.815 233.754 156.842 234.248 156.752 234.588ZM61.0693 233.508C61.4246 233.747 61.5895 234.614 61.3008 234.724C60.8498 234.894 60.06 234.461 60.06 234.042C60.06 233.382 60.5215 233.138 61.0693 233.508ZM156.757 236.391C156.675 236.65 156.424 236.852 156.185 236.852C155.662 236.852 155.639 236.471 156.129 235.931C156.575 235.439 156.968 235.727 156.757 236.391ZM148.5 236.558C148.5 236.88 148.356 237.645 148.179 238.259C148.003 238.873 147.716 239.969 147.541 240.693C147.365 241.418 146.863 243.245 146.425 244.754C145.221 248.9 144.981 250.1 144.752 253.088C144.399 257.703 143.508 260.318 141.58 262.393C141.269 262.728 140.804 263.414 140.546 263.917C139.538 265.889 135.305 269.12 133.73 269.12C133.493 269.12 133.02 269.264 132.68 269.439C132.339 269.614 131.379 269.925 130.545 270.13C129.712 270.335 128.684 270.673 128.26 270.882C127.837 271.092 127.045 271.331 126.5 271.415C125.956 271.498 124.471 271.8 123.2 272.084C116.676 273.546 101.822 273.613 97.0327 272.203C96.6163 272.08 95.3788 271.818 94.2827 271.619C93.1871 271.421 91.993 271.105 91.63 270.918C91.0316 270.609 89.9355 270.301 85.58 269.217C84.359 268.913 81.5122 267.799 80.2544 267.132C79.3023 266.627 78.0549 266.622 77.6776 267.121L77.3135 267.602L76.5518 267.091C76.1327 266.811 75.7592 266.368 75.7213 266.108C75.6806 265.827 75.4578 265.597 75.1713 265.541C74.8946 265.487 75.0464 265.435 75.5282 265.418C76.0243 265.4 76.3103 265.299 76.23 265.169C76.1552 265.048 76.197 264.949 76.323 264.949C76.8141 264.949 76.3411 263.25 75.553 262.185C75.2769 261.812 75.0189 261.13 74.9804 260.671C74.9348 260.126 74.7621 259.751 74.4854 259.594C73.3848 258.967 70.664 255.988 70.0546 254.742C69.1581 252.91 69.0586 245.718 69.9083 244.214C70.1789 243.736 70.4 243.186 70.4 242.994C70.4 242.8 70.5452 242.451 70.7229 242.217C70.9005 241.982 71.049 241.509 71.0528 241.165C71.0605 240.474 72.1666 239.266 72.792 239.266C73.0334 239.266 73.4102 239.822 73.9024 240.906C74.3122 241.808 74.8737 242.758 75.1504 243.017L75.6536 243.489L77.0418 242.573C78.5444 241.582 79.282 241.511 80.6559 242.226C81.0046 242.408 81.5419 242.557 81.8494 242.558C82.1992 242.558 82.8955 242.969 83.7078 243.655C84.4426 244.274 85.3237 244.81 85.7362 244.887C86.1768 244.969 86.6365 245.263 86.8973 245.628C87.1343 245.961 87.653 246.361 88.0495 246.52C88.4455 246.677 88.9383 246.977 89.144 247.186C89.3492 247.394 89.9173 247.633 90.4052 247.715C91.2065 247.85 91.3154 247.947 91.5222 248.714C91.7631 249.606 92.7091 250.9 93.1205 250.9C93.253 250.9 93.566 251.086 93.8157 251.313C96.6389 253.875 103.557 254.948 106.518 253.284C107.855 252.532 110.945 252.234 112.315 252.725C113.433 253.124 115.231 252.991 116.769 252.394C117.59 252.075 118.18 251.983 118.788 252.08C120.022 252.277 121.851 251.807 122.257 251.189C122.439 250.911 122.96 250.585 123.414 250.463C123.868 250.341 124.618 249.985 125.08 249.672C125.542 249.359 126.154 249.014 126.44 248.906C126.725 248.798 127.128 248.413 127.334 248.052C127.613 247.564 128.051 247.276 129.03 246.936C131.837 245.963 131.902 245.953 132.548 246.416C134.458 247.782 135.013 247.769 135.688 246.338C135.988 245.705 136.315 245.428 137.171 245.084C137.776 244.841 138.864 244.198 139.59 243.655C140.316 243.113 141.224 242.521 141.607 242.34C141.99 242.158 142.719 241.481 143.226 240.834C143.733 240.187 144.435 239.495 144.785 239.297C145.135 239.099 145.483 238.747 145.558 238.515C146.041 237.019 148.5 235.383 148.5 236.558ZM58.3 237.485C58.3 237.714 58.4452 237.958 58.6228 238.026C58.8005 238.094 59.0953 238.506 59.2773 238.941C59.5848 239.675 59.6695 239.727 60.4395 239.664L61.27 239.596L61.2386 238.431C61.2002 236.981 61.1484 236.932 60.0424 237.296C59.3367 237.529 59.0518 237.536 58.7213 237.33C58.3616 237.106 58.3 237.129 58.3 237.485ZM154.44 239.047C154.44 239.288 154.341 239.486 154.22 239.486C154.099 239.486 154 239.288 154 239.047C154 238.805 154.099 238.608 154.22 238.608C154.341 238.608 154.44 238.805 154.44 239.047ZM156.684 241.944C156.479 242.149 156.361 242.149 156.156 241.944C155.951 241.74 156.009 241.681 156.42 241.681C156.831 241.681 156.889 241.74 156.684 241.944ZM157.08 244.253C157.08 244.43 156.889 244.626 156.655 244.687C156.422 244.748 156.177 244.936 156.112 245.105C155.95 245.527 154.88 245.508 154.88 245.083C154.88 244.902 155.01 244.754 155.169 244.754C155.327 244.754 155.681 244.452 155.955 244.082C156.469 243.389 157.08 243.482 157.08 244.253ZM152.24 246.593C152.24 247.037 151.658 247.472 151.47 247.169C151.253 246.818 151.512 246.291 151.903 246.291C152.088 246.291 152.24 246.427 152.24 246.593ZM55.8074 248.215C56.3007 249.629 56.2001 250.945 55.605 250.861C55.2623 250.812 55.0924 250.622 55.0522 250.242C55.0203 249.94 54.89 249.313 54.7619 248.849C54.3323 247.288 55.2827 246.712 55.8074 248.215ZM156.86 247.924C156.86 248.098 156.761 248.301 156.64 248.376C156.519 248.451 156.42 248.309 156.42 248.06C156.42 247.811 156.519 247.608 156.64 247.608C156.761 247.608 156.86 247.75 156.86 247.924ZM204.691 250.276C203.452 251.463 203.28 251.728 203.28 252.445C203.28 253.409 202.832 253.864 201.881 253.864C201.298 253.864 201.186 253.964 201.019 254.632C200.567 256.454 200.26 257.263 199.357 259.022C198.83 260.049 198.274 261.036 198.122 261.217C196.981 262.571 196.92 263.579 197.933 264.345C199.095 265.225 199.819 264.906 200.75 263.104C200.992 262.636 201.756 261.649 202.448 260.912C203.14 260.175 204.021 258.978 204.407 258.254C204.792 257.53 205.276 256.69 205.482 256.388C205.687 256.086 205.924 255.559 206.007 255.216C206.09 254.874 206.5 254.281 206.917 253.899C207.461 253.402 207.754 252.879 207.95 252.053C208.181 251.083 208.303 250.9 208.722 250.9C209.073 250.9 209.22 250.771 209.22 250.461C209.22 250.088 209.073 250.022 208.23 250.022C207.406 250.022 207.24 249.953 207.24 249.607C207.24 249.221 206.842 248.925 206.323 248.925C206.202 248.925 205.467 249.533 204.691 250.276ZM156.857 251.298C156.853 252.482 156.704 252.766 156.09 252.766C155.537 252.766 155.371 251.894 155.827 251.376C156.003 251.175 156.216 250.786 156.3 250.513C156.541 249.723 156.861 250.173 156.857 251.298ZM11.5824 252C11.4988 252.417 11.2448 252.755 10.8949 252.914C10.461 253.111 10.34 253.328 10.34 253.908C10.34 254.316 10.142 255.037 9.9 255.51C9.1828 256.913 9.306 257.948 10.3152 258.997C11.2403 259.957 11.3443 260.312 11.6116 263.412C11.6996 264.439 11.8707 265.426 11.9911 265.608C12.1116 265.789 12.2804 266.678 12.3668 267.583C12.7353 271.454 12.9261 272.627 13.2726 273.154C13.4745 273.462 13.64 273.964 13.64 274.271V274.827H17.71H21.78L21.8289 273.675C21.9433 270.959 21.7717 269.722 21.1838 269.025C20.6371 268.377 20.6256 268.298 20.7658 266.136C20.8879 264.255 20.856 263.869 20.5606 263.624C20.0596 263.209 19.58 262.207 19.58 261.575C19.58 261.276 19.3325 260.738 19.03 260.379C18.7275 260.021 18.48 259.587 18.48 259.416C18.48 259.245 18.282 258.893 18.04 258.634C17.7562 258.33 17.6 257.859 17.6 257.31C17.6 256.356 17.0913 255.73 16.318 255.73C15.9869 255.73 15.84 255.595 15.84 255.291C15.84 255.047 15.6932 254.852 15.51 254.852C15.3285 254.852 15.18 254.731 15.18 254.584C15.18 253.725 14.4359 252.437 13.9403 252.437C13.6543 252.437 13.42 252.345 13.42 252.233C13.42 251.255 11.7739 251.047 11.5824 252ZM54.7371 254.591C54.9961 255.821 54.9956 255.823 54.3174 256.441C53.8346 256.881 53.6849 257.17 53.7993 257.437C53.8884 257.645 53.9814 258.225 54.0061 258.727C54.0309 259.228 54.3009 260.117 54.6062 260.702C55.3531 262.134 55.3141 265.817 54.5385 267.068C54.1739 267.658 54.115 267.942 54.2817 268.311C54.4846 268.761 54.5077 268.746 54.6623 268.05L54.8273 267.309L56.0675 267.454C57.068 267.572 57.4579 267.743 58.0794 268.338C58.7829 269.012 58.988 269.084 60.4334 269.16C61.9619 269.24 62.4899 269.402 62.1907 269.701C62.112 269.779 61.7738 269.853 61.4388 269.866L60.83 269.888L60.7167 271.929C60.5951 274.105 60.4489 274.378 59.3984 274.385C57.695 274.395 55.8525 272.952 54.351 270.43C53.8747 269.63 53.3302 268.846 53.1421 268.691C52.954 268.535 52.8 268.145 52.8 267.825C52.8 267.459 52.5668 267.038 52.1724 266.693C51.7093 266.287 51.5026 265.856 51.3849 265.052C51.2969 264.452 50.9806 263.52 50.6814 262.981C49.8966 261.565 50.182 260.132 51.5344 258.699C51.898 258.313 51.948 257.949 51.9123 255.949C51.8892 254.681 51.8821 253.593 51.8953 253.531C51.909 253.469 52.4958 253.404 53.1993 253.389L54.4786 253.359L54.7371 254.591ZM58.7323 253.74C58.8577 253.973 58.96 254.526 58.96 254.967C58.96 255.581 59.1943 256.078 59.95 257.07C61.1644 258.663 61.2353 259.136 60.2311 258.936C58.6448 258.619 57.64 256.919 57.64 254.552C57.64 253.218 58.2208 252.787 58.7323 253.74ZM161.628 256.533C161.567 256.593 161.286 256.598 161.004 256.543L160.49 256.444L160.985 256.281C161.257 256.191 161.492 256.006 161.505 255.868C161.52 255.732 161.578 255.8 161.635 256.021C161.692 256.242 161.689 256.472 161.628 256.533ZM174.46 257.705C174.177 258.233 174.517 259.022 175.027 259.022C175.716 259.022 177.1 258.14 177.1 257.701C177.1 257.051 174.809 257.054 174.46 257.705ZM156.809 258.103C156.862 258.259 156.669 258.364 156.328 258.364C155.739 258.364 155.555 258.043 156.035 257.852C156.416 257.7 156.707 257.794 156.809 258.103ZM215.93 258.379C215.688 258.474 215.225 258.559 214.901 258.568C213.618 258.601 212.801 261.418 213.714 262.657C214.062 263.128 213.999 263.216 214.569 261.456C214.804 260.73 215.064 260.4 215.605 260.139C216.708 259.607 217.014 257.949 215.93 258.379ZM62.7841 259.683C62.8908 259.786 62.9211 260.02 62.8513 260.202C62.684 260.637 60.94 260.008 60.94 259.513C60.94 259.168 62.3892 259.302 62.7841 259.683ZM66.0803 259.948C65.8911 260.253 65.5716 259.906 65.7101 259.546C65.8125 259.28 65.8795 259.267 66.016 259.487C66.1122 259.642 66.1413 259.85 66.0803 259.948ZM208.037 262.458C207.513 263.021 207.499 263.091 207.831 263.458C208.557 264.259 209.564 263.625 209.399 262.47C209.298 261.769 208.683 261.763 208.037 262.458ZM23.2326 263.157C23.0373 263.472 23.0076 264.842 23.1902 265.136C23.5131 265.658 24.2 264.76 24.2 263.818C24.2 263.002 23.5873 262.584 23.2326 263.157ZM219.23 263.632C219.155 263.753 218.67 263.852 218.151 263.852C217.105 263.852 216.48 264.331 216.48 265.131C216.48 265.461 216.345 265.608 216.04 265.608C215.653 265.608 215.6 265.754 215.6 266.815C215.6 267.876 215.547 268.022 215.16 268.022C214.759 268.022 214.72 267.876 214.72 266.376C214.72 264.862 214.684 264.73 214.269 264.73C213.793 264.73 213.18 265.839 213.18 266.698C213.18 267.251 212.403 267.306 211.836 266.794C211.174 266.195 209.937 266.754 209.423 267.882C208.895 269.043 208.898 269.399 209.44 269.888C210.263 270.631 209.061 272.851 207.836 272.851C207.537 272.851 207.46 273.054 207.46 273.839V274.827H213.51H219.56V272.961C219.56 271.864 219.651 271.095 219.78 271.095C219.918 271.095 220 269.669 220 267.254C220 263.477 219.828 262.667 219.23 263.632ZM36.08 267.153C36.08 267.872 35.8836 268.461 35.6439 268.461C35.3914 268.461 35.183 267.178 35.3364 266.568C35.5174 265.849 36.08 266.291 36.08 267.153ZM62.8776 267.161C62.8347 267.291 62.705 267.397 62.59 267.397C62.475 267.397 62.3458 267.291 62.3024 267.161C62.2589 267.031 62.3882 266.925 62.59 266.925C62.7918 266.925 62.9211 267.031 62.8776 267.161ZM1.90685 267.291C1.68245 267.515 1.7325 268.857 1.97065 269.004C2.20275 269.147 2.86 268.024 2.86 267.484C2.86 267.147 2.1879 267.01 1.90685 267.291ZM139.487 273.241C138.369 274.144 139.245 274.827 141.52 274.827H143.489L143.334 274.006C143.115 272.842 143.131 272.851 141.472 272.851C140.36 272.851 139.843 272.953 139.487 273.241Z" fill="#012E71"/>
</svg>
