<svg width="70" height="45" viewBox="0 0 70 45" fill="none" xmlns="http://www.w3.org/2000/svg">
<path d="M8.45316 44.0062C8.20516 44.0062 7.95451 43.9955 7.69984 43.9727C4.55584 43.698 1.80784 41.8301 0.69717 39.2185C-1.51616 34.0061 1.8545 28.0501 6.39317 25.7587C10.5158 23.6792 15.9505 23.7609 21.3065 25.9812C25.0518 27.5342 28.4052 29.8738 31.6478 32.1357C32.3852 32.6502 33.1225 33.1646 33.8638 33.6698C37.6958 36.2814 41.8852 38.7951 46.5638 39.4986C55.4705 40.8506 65.0092 34.1469 66.9558 25.1759C68.8732 16.3484 63.2532 6.24115 54.6838 3.10567C50.0332 1.40394 44.9225 1.692 41.0172 3.87745C36.8118 6.23308 34.1532 10.8211 34.4025 15.2938C34.6585 19.926 38.3732 24.1736 42.6798 24.7632C45.0265 25.0835 47.3305 24.3425 48.6758 22.8243C50.1038 21.2097 50.2652 18.6798 49.0358 17.1871C48.6838 16.7597 48.7425 16.126 49.1692 15.7709C49.5932 15.4198 50.2238 15.4788 50.5758 15.9049C52.4412 18.1681 52.2638 21.7939 50.1705 24.1589C48.3892 26.1729 45.4172 27.1644 42.4078 26.7557C37.1132 26.0295 32.7185 21.0448 32.4052 15.4064C32.1145 10.1806 35.1838 4.84361 40.0438 2.12218C44.4505 -0.343327 50.1785 -0.680962 55.3678 1.2164C64.9905 4.73778 71.0652 15.6784 68.9105 25.6047C66.7492 35.5552 56.1638 42.9704 46.2665 41.4885C41.1945 40.7234 36.7678 38.0783 32.7412 35.3341C31.9932 34.825 31.2505 34.3049 30.5065 33.7864C27.3518 31.5849 24.0905 29.3096 20.5438 27.8397C15.7238 25.8392 10.8945 25.7374 7.2905 27.5543C3.64116 29.3981 0.79051 34.3171 2.53718 38.428C3.34918 40.3388 5.49185 41.7618 7.87318 41.9695C9.89585 42.149 11.5905 41.4335 12.5132 40.0092C12.8145 39.5429 13.4332 39.4142 13.8972 39.7143C14.3598 40.0185 14.4905 40.6416 14.1892 41.1052C12.9932 42.9516 10.8838 44.0062 8.45316 44.0062Z" fill="#0D489C"/>
</svg>
