<svg width="70" height="45" viewBox="0 0 70 45" fill="none" xmlns="http://www.w3.org/2000/svg">
<path d="M60.8915 44.0062C58.4595 44.0062 56.3516 42.9516 55.1556 41.1052C54.8543 40.6416 54.9849 40.0185 55.4475 39.7143C55.9102 39.4142 56.5302 39.5429 56.8315 40.0092C57.7528 41.4322 59.4489 42.1544 61.4729 41.9695C63.8529 41.7618 65.9969 40.3388 66.8076 38.428C68.5556 34.3171 65.705 29.3981 62.0543 27.5543C58.4516 25.7374 53.6209 25.8405 48.8022 27.8397C45.2556 29.3096 41.9942 31.5849 38.8382 33.7864C38.0956 34.3049 37.3516 34.825 36.6049 35.3341C32.5769 38.0783 28.1516 40.7234 23.0796 41.4885C13.1716 42.9637 2.59559 35.5525 0.434254 25.6047C-1.72041 15.6784 4.35426 4.73778 13.9756 1.2164C19.1676 -0.680962 24.8956 -0.343327 29.3009 2.12218C34.1609 4.84361 37.2302 10.1806 36.9409 15.4064C36.6276 21.0448 32.2329 26.0295 26.9369 26.7557C23.9263 27.1644 20.9569 26.1729 19.1742 24.1589C17.0822 21.7939 16.9036 18.1681 18.7689 15.9049C19.1209 15.4775 19.7503 15.4185 20.1756 15.7709C20.6023 16.126 20.6609 16.7597 20.3089 17.1871C19.0783 18.6798 19.2409 21.2097 20.6689 22.8243C22.0142 24.3425 24.3102 25.0808 26.6662 24.7632C30.9729 24.1736 34.6862 19.926 34.9436 15.2938C35.1929 10.8211 32.5329 6.23308 28.3276 3.87745C24.4223 1.69066 19.3143 1.40394 14.6609 3.10567C6.09161 6.24115 0.471608 16.3484 2.38894 25.1759C4.33694 34.1455 13.8569 40.8492 22.7822 39.4986C27.4596 38.7951 31.6502 36.2814 35.4822 33.6698C36.2236 33.1646 36.9609 32.6502 37.6982 32.1357C40.9409 29.8738 44.2929 27.5342 48.0382 25.9812C53.3956 23.7582 58.8316 23.6792 62.9516 25.7587C67.4902 28.0501 70.8622 34.0061 68.6475 39.2185C67.5382 41.8301 64.7889 43.698 61.6462 43.9727C61.3916 43.9955 61.1395 44.0062 60.8915 44.0062Z" fill="#0D489C"/>
</svg>
